<svg width="28" height="28" viewBox="0 0 28 28" fill="none" xmlns="http://www.w3.org/2000/svg">
<g clip-path="url(#clip0)">
<path d="M9.84375 24.5H5.25C2.35156 24.5 0 22.1484 0 19.25V8.75C0 5.85156 2.35156 3.5 5.25 3.5H9.84375C10.2047 3.5 10.5 3.79531 10.5 4.15625V6.34375C10.5 6.70469 10.2047 7 9.84375 7H5.25C4.28203 7 3.5 7.78203 3.5 8.75V19.25C3.5 20.218 4.28203 21 5.25 21H9.84375C10.2047 21 10.5 21.2953 10.5 21.6562V23.8438C10.5 24.2047 10.2047 24.5 9.84375 24.5ZM16.2914 7.92422L20.5352 11.8125H10.0625C9.33516 11.8125 8.75 12.3977 8.75 13.125V14.875C8.75 15.6023 9.33516 16.1875 10.0625 16.1875H20.5352L16.2914 20.0758C15.7391 20.5789 15.7227 21.443 16.2477 21.9734L17.4453 23.1711C17.9539 23.6797 18.7852 23.6852 19.2992 23.1766L27.6117 14.9297C28.1312 14.4156 28.1312 13.5789 27.6117 13.0648L19.3047 4.82891C18.7906 4.32031 17.9648 4.32031 17.4508 4.83438L16.2531 6.03203C15.7227 6.55703 15.7445 7.42109 16.2914 7.92422V7.92422Z" fill="#F95F0B"/>
</g>
<defs>
<clipPath id="clip0">
<rect width="28" height="28" fill="white"/>
</clipPath>
</defs>
</svg>
