<svg width="172.03mm" height="169.88mm" version="1.1" viewBox="0 0 172.02876 169.88338" xmlns="http://www.w3.org/2000/svg">
<defs>
<filter id="a" x="-.0047698" y="-.0048306" width="1.0095" height="1.0097" color-interpolation-filters="sRGB">
<feGaussianBlur stdDeviation="0.33866098"/>
</filter>
</defs>
<g transform="translate(-16.039 -66.159)">
<g transform="translate(-60.42 -69.409)" filter="url(#a)" opacity=".942">
<g transform="rotate(178.9 33.223 182.42)">
<path d="m-172.85 196.96c-0.37808-0.4781-0.07-1.052 0.13297-1.5305 0.41724-1.0563 0.84045-2.1103 1.2675-3.1627-0.46251-0.39682-0.43044-1.4602-0.51996-2.1468 0.58113-0.12191 1.0598 0.35102 1.0195 0.93032 0.35186-0.85987 0.70698-1.7184 1.0634-2.5764-0.83857-0.0692-1.4822-0.70636-1.8321-1.4316-0.56976 0.3995-1.5058 0.44362-1.8071 1.0944 0.0863 0.55221 0.28008 0.84953 0.7968 0.44762 0.33873-0.0894 1.2254-0.74665 0.76303-0.0401-0.4404 0.98729-0.84349 1.9907-1.274 2.9823 0.0782 0.66102 0.27223 1.2189-0.35901 1.6148-0.36525 0.45764-1.3869 1.2834-0.70973 1.7821 0.18013 0.14348-0.26915 0.81191-0.44912 0.95496-0.0567 0.25273 0.77587 0.79899 1.0508 1.175 0.28508-0.0364 0.57082-0.0674 0.85702-0.0933zm-1.5191-2.4246 0.0726-0.0923zm11.096-8.3258c0.315-0.7118-0.39975-1.1106-0.80123-1.5729-0.49291-0.45656-1.0738-1.2061-1.8366-0.92924-0.54413 0.1779-0.87272 0.50841-0.96631 0.99414-0.1255 0.40099-0.49579-0.4979-0.76179 0.11488-0.38651 0.60061-1.1282 1.066-1.2028 1.81-0.0325 0.51996 0.83762-0.18856 1.2058-0.1993 0.99562-0.30786 1.9964-0.77325 3.0569-0.73834 0.47112 0.0591 0.90983 0.26744 1.3061 0.52079zm-15.195 5.1113c3e-3 -0.36485 0.87464-0.45937 1.1992-0.71968 0.77405-0.36477 1.555-0.71467 2.3404-1.0544 0.18707-0.42811 0.2509-1.4389-0.42371-0.8621-1.2721 0.53041-2.5379 1.0866-3.8314 1.5591-0.49876 0.0589-0.85278-0.31491-1.2752-0.50531-0.18267-0.23123-0.60482 0.34871-0.27063 0.42658 0.21131-0.27295 0.2473-0.2521 0.0112 0.01 0.52361 0.40734 0.96587 1.0702 1.5199 1.3302 0.24659-0.0475 0.48876-0.11601 0.73015-0.18449zm5.1151-3.1824 0.0343-0.0401zm4.8726-1.9234c-0.0316-0.13282 0.25234-0.18682 0 0z"/>
<path d="m-156.18 209.31c0.44591-0.56847-0.79908-1.4651-0.89819-0.90578-0.13474-0.47327-0.40893-1.6094-0.4502-1.6577 0.1321 0.80241 0.83275 0.3049 1.0165-0.0987 0.23703 0.63392 0.55266-0.76155 0.90504-0.91026 0.68556-0.85464-0.0947-1.9074 0.0535-2.8811 0.0226-1.373-0.72107 0.35879-1.1043 0.77323-0.37759 0.676-1.0612 1.2928-1.2411 2.0072 0.16716 0.41347 0.32021 0.59948-0.0985 0.52486-0.38089 0.57093-1.0483-0.16755-1.6882-0.14261-0.86228-0.28926-1.6687-0.87805-2.0357-1.7319-0.40531 1.0997-0.89058-1.1026-0.59727-1.3798 0.62808-0.71233 1.4624-1.4285 1.4678-2.4555 0.11284-0.86538 0.66398 0.79361 0.89695-0.19627 0.63904-0.93128 1.2529-1.8899 1.9471-2.7852 0.48371-0.17376 1.9294 0.76759 1.433-0.25948-0.9155-0.50017-1.7417-1.135-2.6058-1.7248-0.37665-0.31538-1.6256-1.2974-1.2397-0.21909 1.3055 0.83321 0.0361 1.9356-0.50464 2.7885-0.61867 0.91288-1.1132 1.6996-1.7631 2.5722-0.71277 0.73032-0.82134 2.3533-2.1411 1.728-1.2051-0.26748-2.4856-1.2141-2.5115-2.5449-1e-3 -0.89055 1.037-1.5495 0.6281-2.463-0.131-0.48205-0.60948-1.5645 0.30184-0.93289 0.5859-0.17283 1.0261-1.7048 1.5853-1.0925 0.77857-0.26135 0.83671-1.9423 1.8858-1.59 0.43023 0.32417 1.447 0.28762 0.77177-0.36277-1.2148-0.64642-2.2833-1.5321-3.4267-2.3005-0.71575-0.73678-0.56047 0.7649-0.058 0.67096 0.22196-0.42767 0.64009 1.0589 0.10101 1.2981-1.1802 1.72-2.3963 3.4222-3.5132 5.1866-0.72193 1.2326-0.28353 3.0434 0.89645 3.7593-0.23528-0.5717-0.14395-0.59694 0.20582-0.11892 0.54478 0.0504 0.83455 0.23306 0.95763 0.73784 0.88737 0.65956 2.0566 0.54805 3.0965 0.48929-0.20682 1.8202 1.477 3.2874 3.1532 3.5592 0.51198 0.20609 1.7024 0.01 1.8223 0.3154-0.37178 0.46944-0.8996 1.08 4e-3 1.2381 0.9398 0.307 1.836 0.72406 2.7473 1.1047zm2.1769-5.9722 0.0235-0.0292zm0.0235-0.0292c0.67665-0.60633 0.91404-2.0999 1.9412-2.0216 0.40288 0.2263 1.6432 0.58262 1.1008-0.27905-0.85293-0.36282-1.5978-0.99528-2.3869-1.5058-0.52667-0.1632-1.5135-1.562-1.6918-0.65989 0.41739 0.55851 1.2166 1.2932 0.28406 1.8533-0.36537 0.84718 0.45899 1.8085 0.642 2.5119 0.0717-0.0716 0.19103 0.0348 0.11071 0.10107zm-7.4082-1.8289c0.12317-0.22877 0.0791-0.0378 0 0zm1.6078-3.1161c-0.60281-0.31897 0.29696-1.2197 0.0168-0.27676-5e-3 0.0923-0.0111 0.18451-0.0168 0.27676z"/>
<path d="m-146.17 213.15c0.772-0.93867 1.5363-1.8894 2.2423-2.8771 0.25033-0.48023 0.0478 0.4507 0.21114 0.6479 0.15975 0.51747 0.43998-0.39921 0.60619-0.58507 0.49895-0.96008 0.83529-2.0381 0.77111-3.1301-0.43163-0.34487-1.1676-0.57772-1.2893-1.1404-2.4e-4 -0.42001-0.47981-0.67213-0.73002-0.27618 0.27896-0.28597 0.39433-0.74107 0.75003-0.93006 0.6441-0.18515-0.24925-0.67174-0.45872-0.93794-0.31037-0.33043-0.65842-0.52951-0.9768-0.0972-0.23415 0.24914-0.87452 0.49529-0.84844 0.74557 0.40224 0.2094 0.67077 0.8165 1.0078 0.9243 0.51442-0.30013-0.18941 0.28611 0.1573 0.49426 0.48185 1.163 0.10927 2.4574-0.37984 3.5529-0.45052-0.20309-0.90107-0.40616-1.3516-0.60924-0.42896 0.26636-0.81742 0.10707-1.2289-0.10264-0.73628-0.32312-1.6422-0.41376-2.1655-1.0882-0.15024-0.27338-0.2526-0.53384-0.5837-0.60194-0.16618-0.075-0.33238-0.1499-0.49856-0.22486-0.24112 0.57047-0.54199 1.1808-0.40839 1.8174 0.20011 0.27082 0.24988 0.43798-0.13583 0.44509-0.34125 0.16088-0.73084-0.0401-0.47197-0.44381 0.18041-0.67409 0.37162-1.3478 0.58141-2.0146-0.31297-0.0508-0.37379 0.61576-0.54376 0.8578-0.38239 0.96323-0.53423 2.0674-0.17144 3.0602 0.52385-0.16017 1.1747-0.35992 1.6063-0.53479 0.0981-0.59998 0.34234-1.1608 0.59383-1.71l4.3621 1.9659c-0.27821 0.52456-0.64479 1.0069-1.1043 1.3858 0.46898 0.46278-0.0799 1.2675-0.0755 1.5608 0.18066-0.0402 0.35854-0.0924 0.53308-0.15388zm-3.133-0.0365c0.21087-0.20213 0.36278-0.3841 0.15188-0.66365-0.18316-0.46006-1.0293-0.51494-1.1936-1.1253-0.23483-0.30352-0.10822-0.90324-0.21515-1.0945-0.49386 0.17363-1.0063 0.35277-1.4079 0.70086 0.48859 1.1009 1.5621 1.7995 2.6648 2.1826zm4.1038-1.6388c0.15944-0.2177 0.50965-0.6267 0.5781-0.6996-0.18961 0.23574-0.38244 0.46888-0.5781 0.6996zm0.0342-0.12941c0.15992-0.46286-0.29966-0.92756-0.21132-1.3153 0.68058-0.21794 0.87966 0.43789 0.46488 0.88901-0.0788 0.14538-0.16486 0.28674-0.25356 0.4263zm-1.9596-7.5381c0.23525-0.33389 0.74529-0.8087 0.71651-1.1211-0.55076-0.36546-0.78153 0.15346-0.9371 0.61838-0.23906 0.38358-0.16996 0.31275 0.22059 0.50275z"/>
<path d="m-139.08 222.7c0.72153-0.7047-1.4242-0.77247-0.99441-1.521 0.2514-0.47023 0.0189-0.63496-0.30972-0.20844-0.51473 0.41915-1.424 1.0456-1.5252 1.5227 0.94449 0.048 1.8877 0.1197 2.8293 0.20674zm-0.66737-0.077c4e-3 -0.0773 0.16985-0.0444 0 0zm-0.12268-2.1881c0.3208-1.1649 0.64761-2.3281 0.98522-3.4882 1.959 0.97078 4.4167 1.4042 6.422 0.32014 0.92575-0.50684 1.6424-1.3454 2.0918-2.2924-0.86502 0.20884-1.7239 0.51639-2.6211 0.53211 0.70866-0.92308 1.9539-1.0952 2.8312-1.7777 0.36516-0.3152 0.7609-1.351 0.35781-1.5116-0.38778 0.14238-0.91906 0.19731-0.21132 0.0358 0.6949-0.16473 0.38412-1.7391-0.33355-1.0909-0.82525 0.1977 0.82591-0.21366 0.44353-0.74946-0.0943-0.52547-0.37201-0.92499-0.81553-0.38977-0.0586-0.15725 0.52312-0.96027-0.11352-1.2228-0.64904-0.45017-1.4585 0.31945-1.86 0.75956 0.16491 0.55643 0.59409 0.6094 1.0812 0.48665-0.52302 0.85294-0.14445 1.8793-0.35713 2.8116-0.30063 1.5207-0.99649 3.2372-2.5669 3.8124-1.3695 0.46492-2.8717 0.0236-4.0622-0.7082 0.33163-1.1394 0.66324-2.2788 0.99487-3.4181-0.31834 0.1644-1.2927 0.47362-0.60163-0.0866 0.60028-0.38953 0.56331-1.2182 0.61315-1.664 0.70287-0.32294 0.84678-1.0644 1.0048-1.7422 0.13306-1.0838 1.5077-0.16591 2.1268-0.7178 0.3866-0.48208 1.9487-1.1201 1.5566 0.0376-0.32293 0.32896-0.22373 1.3928 0.29937 0.78231 0.39777-0.33455 1.282-1.1789 0.2493-1.3198-1.2753-0.52656-2.7285-0.34293-3.9871 0.13939 0.11184-0.99913-0.80915-1.7963-1.7691-1.7336-0.71689-0.15267-1.4959 1.1061-0.35756 0.89506 0.3878-0.18565 1.4378-0.71898 0.92253 0.12939-0.62332 0.34539-1.0867 0.73646-1.0967 1.5182-0.1897 0.64809-0.41552 1.4397-0.49491 1.9633-0.369 0.68792-0.44232 1.4919-0.71219 2.2209-0.33646 1.1563-0.67291 2.3127-1.0094 3.469 0.37999-0.13029 1.2332-0.61094 1.3033-0.51716-0.60125 0.45575-1.5851 0.63112-1.607 1.5604-0.0956 0.53052-0.54377 1.4399-0.42811 1.7323 0.37806-0.14945 1.4269-0.54192 1.4136-0.33953-0.73124 0.47382-1.8012 0.74735-1.9332 1.759-0.22797 0.32437-0.22877 0.99517 0.30005 0.54127 0.6503-0.23686 1.2814-0.52564 1.9411-0.73665zm0.89155-7.476c-0.0995-0.0124 0.2921-0.26121 0 0zm-0.63782 0.10177c0.12288-0.34539 1.0561-0.74124 0.35551-0.22923-0.11663 0.0793-0.23516 0.15573-0.35551 0.22923zm1.0256-3.242c0.18285-0.13159 1.0845-1.1298 0.73056-0.56527-0.24823 0.18223-0.49165 0.371-0.73056 0.56527zm-1.0461-3.2088c0.40295-0.15933 0.24136-0.57762 0.0207-0.1305z"/>
<path d="m-119.82 220.17c-0.0486-0.25569-0.0972-0.51139-0.14578-0.76709-1.2553 0.10316-2.6053 0.21239-3.7736-0.3547-0.82009-0.37379-1.1384-1.3349-1.0152-2.178 0.24879-0.54371-0.61551-0.53451-0.47611-1.0975-0.16221-0.60042 0.75659-0.4432 1.1232-0.34047 0.38872 0.12501 1.0262-0.16058 1.2432-0.014-0.20939 0.43453-0.17311 0.66213 0.35416 0.57354 0.54594 0.0178 1.094 5e-3 1.6363-0.0645 0.48824-0.27172 1.0214-0.64263 1.5727-0.66564-0.13706 0.50461 0.62103-0.22445 0.79675-0.43352 0.29591-0.31696 0.50197-0.87269 0.46422-1.1378 0.17667-0.19202 0.33622-1.2103-0.10278-0.72705-0.61418 0.37062-1.2619 0.72089-1.9739 0.85347-0.18105 0.75086-0.92644 1.1983-1.6621 1.2351-0.89668 0.0876-1.7981-0.0172-2.6866-0.13917 0.15139-1.0082 0.30276-2.0165 0.45416-3.0247-0.29322 0.40084-0.63264 0.7724-0.87642 1.2066-0.57942 0.38908-1.127-0.1262-0.87574-0.75881 0.0567-0.60034 0.33783-1.0587 0.97397-1.0682 0.55905-0.1666 1.1168-0.33851 1.6829-0.48001-0.0636 0.20158-0.64758 0.57133-0.10632 0.42286 0.73109-0.0601 1.4909-5e-3 2.176 0.27239 0.1149-0.45062-0.32621-1.3096 0.41932-1.2015 0.22349-0.0338 0.64801-0.0574 0.19948-0.12583-1.1864-0.31217-2.4299 0.0443-3.483 0.60595-0.10291-0.71819-0.69661-1.3156-1.4432-1.3096-0.67087 0.0211-1.3385 0.12467-1.9933 0.26919-0.0435 0.27464-0.0229 0.62733 0.35377 0.39902 0.7633-0.22679 1.5629-0.31712 2.3559-0.35366-0.4234 0.51604-0.84283 1.0828-1.2531 1.5581-0.16451 0.33089-0.12907 0.74915-0.21542 1.1187-0.22889 1.5161-0.48957 3.0281-0.69727 4.547-0.0406 0.3773-0.10972 0.83433 0.41053 0.73226-0.0386 0.51125 0.37847 1.0144 0.2555 1.4478-0.15672 0.28048 0.62881 0.96214 0.60389 0.32403 0.11412-0.57766 0.89112-0.27135 1.3306-0.41619 0.12659 0.28045-0.31172 1.1624 0.17935 1.427 1.3968 0.26796 2.8375 0.0318 4.194-0.33515zm-2.0265-4.3027c0.10672-0.27435 0.81059-0.75685 0.32292-0.30472-0.10956 0.0995-0.21502 0.20343-0.32292 0.30472zm-0.19677-0.33638c0.0539-0.30603 0.2574-0.18514 0 0z"/>
<path d="m-110.92 221.08c0.61202-0.23901 1.1844-0.59182 1.658-1.0477 0.13615-0.4835 0.39841-0.89777 0.77235-1.2309 0.41486-0.36873 0.67509-0.85085 0.76902-1.3992-0.31105 0.23488-0.86059 0.92904-1.2558 1.3474-0.22613 0.1653-0.57863 0.8289-0.69886 0.67237-0.1888-0.95265-0.0223-1.923-0.055-2.885-7e-3 0.34546-0.10106 1.2619-0.33188 1.7892-0.39923 1.1378-1.4166 2.0814-2.6466 2.1888-0.58022 0.065-1.1823 0.0318-1.7347-0.1687-0.15767-0.49768-0.31535-0.99536-0.47302-1.493-0.34962 0.23906-0.46903 0.95846-0.42913 1.0738-0.2493-0.33653-0.43263-1.0426-0.58991-1.1954-0.15131 0.67578-0.31098 1.3498-0.48905 2.0191 0.53211 0.14103 1.2592 0.70657 1.7282 0.38006 0.38042 0.23231 1.0142 0.39783 1.5566 0.34088 0.80944 0.0359 1.6433-0.32309 2.1306-0.97887 0.016 0.19743 0.0393 0.39515 0.0892 0.58725zm-0.65506-0.36714c0.23024-0.35262 0.33655-0.33891 0 0zm3.4535-2.7571c0.15158-0.20243 0.47403-0.60098 0.13473-0.16298l-0.0585 0.0732zm0.57721-2.5068c-0.0291-1.6072-0.8382-3.235-2.2638-4.0372-0.27394-0.0971-0.91081-0.60417-0.86719-0.2053-0.32341 0.57333-0.26446-0.59069-0.79006-0.39363-0.83329-0.15547-1.696-0.15285-2.5273 0.015-0.17575 0.22896-0.7377 0.86412-0.13695 0.52099 0.20088-0.14868 0.75637-0.31374 0.5518-0.24362 0.7438-0.35095-0.0553 0.86588 0.24197 0.95222 1.1763 0.095 2.4535 0.56193 3.0466 1.6545 0.35366 0.6205 0.4973 1.3371 0.5432 2.0433-0.15812-0.50731 0.62795-0.0948 0.78564-0.54375 0.28411-0.18885 0.40275-0.82755 0.60646-0.84006 0.30187 0.33294 0.59574 0.68007 0.80961 1.0777zm-7.6049-3.3931c0.10747-0.21566 0.17449-0.85889 2e-3 -0.90252-0.35889 0.2026-1.0378 0.293-1.1491 0.68917-0.0574 0.40106 0.21831 0.3572 0.53412 0.27508 0.20387-0.025 0.40826-0.0456 0.61302-0.0617z"/>
<path d="m-97.921 225.95c0.4758-0.31788 1.297-0.35555 1.3174-1.0519-0.0027-0.19864 0.38544-0.87041-0.01338-0.58958-0.36521 0.14303-1.3627 0.73805-1.3045 0.56439 0.33119-0.6979 1.5408-0.45942 1.6638-1.2391 0.19199-0.70157 0.38395-1.4031 0.57593-2.1047-0.35148 0.12468-0.84253 0.37385-0.42349-0.13888 0.37516-0.72341 0.91457-1.38 1.0626-2.1979 0.5433-1.9861 1.0866-3.9722 1.6299-5.9582-0.48706-0.0973-1.4014-0.53788-1.3776 0.25695-0.1735 0.69384-0.34697 1.3877-0.52048 2.0815-1.3384 0.1745-2.6769 0.34899-4.0153 0.52348 0.40078 0.3467 0.60979 1.1179 1.2425 0.85003 0.83267-0.10853 1.6653-0.21706 2.498-0.32559-0.26105 1.0414-0.52209 2.0828-0.78314 3.1242 0.32505-0.1606 1.1949-0.90642 0.68795-0.17544-0.37689 0.74837-0.85912 1.4521-1.1987 2.2126-0.0978 0.39029-0.1956 0.78058-0.29341 1.1709-0.12403-0.24427-0.24809-0.48852-0.37212-0.73279-0.61086 0.27338-1.3701 0.50864-1.8589 0.86666 0.1405 0.27113 0.281 0.54225 0.4215 0.81338 0.30872-0.16165 1.5714-0.6642 0.75878-0.16104-0.53914 0.13515-0.81329 0.36173-0.4176 0.81989 0.2401 0.46372 0.4802 0.92744 0.7203 1.3912zm0.73362-2.6841c0.3116-0.33218 0.67176-0.23554 0 0zm-2.6435-1.0038c0.52169-0.47488 0.97748-1.0357 1.6166-1.3601-0.28896-0.56925-0.5779-1.1385-0.86687-1.7078-0.51776 0.39643-1.5417 0.62576-1.7689 1.0994 0.18439 0.31897 0.29283 0.89267 0.7195 0.40193 0.34184-0.19134 0.87195-0.51233 0.26007-0.0853-0.53396 0.23708-0.65006 0.57914-0.29294 1.0095 0.11088 0.21411 0.22173 0.42822 0.33258 0.64234zm-1.1097-2.1432c0.5206-0.39363 1.5353-0.63544 1.7633-1.114-0.24651-0.48581-0.49305-0.97161-0.73957-1.4574-0.61745 0.27703-1.783 0.32936-1.5645-0.65844-0.22228-0.59737 1.0335-0.78201 0.54277-1.3411-0.11551-0.51336-0.70285 0.78764-0.56645-0.0216-0.0366-0.52417 0.14922-1.0453-0.19521-1.4888-0.32051-0.67252-0.72425-1.3168-0.92474-2.0364-0.0328-0.52178 0.59932-0.57526 0.95025-0.77968 0.4817-0.13655 0.23746-0.90661-0.27508-0.55429-0.83705 0.1229-1.6745 0.24354-2.5138 0.35004 0.43158 0.62849 1.4047 1.2704 1.595 1.798-0.35632 0.37723-1.4398 0.39734-1.4438 0.79342 0.96836 1.8697 1.9367 3.7395 2.905 5.6092 0.25693-0.0391 0.97676-0.32089 0.37175-0.0125-0.54333 0.11599-0.0317 0.53751 0.0549 0.83582l0.0203 0.0392zm6.3766-4.3428c-0.70463 0.26056-1.4018 0.54159-2.1162 0.77496-0.14186-0.33363-0.89243-0.87126-0.11159-0.69133 0.7433 0.0152 1.4884-2e-3 2.2278-0.0836zm1.5424-3.9713c0.0072-0.50614 0.62324-1.3484 0.49631-1.4495-0.95788-5e-3 -2.1499-6e-3 -2.9608 0.0431 0.39688 0.10144 0.89044 0.0259 1.1878 0.33975 0.23532 0.4489-0.43694 1.2875 0.42467 1.0463 0.28414-3e-3 0.56802 0.015 0.85205 0.0204zm-9.657 2.3693c-0.29014-0.49663 0.12604-0.73459 0 0zm-2.4725-1.9228c-0.0603-0.5881 0.0449-1.4407-0.80466-1.0533-0.50489-0.18772-0.97956 0.37192-0.70668 0.6206 0.51048 0.10952 1.0889 0.0805 1.5113 0.43269z"/>
<path d="m-78.764 216.2c0.57477-0.16171 1.0284-0.50922 1.3987-0.91956 0.51552-0.24225 0.8378-0.70655 1.1447-1.1615 0.576-0.90483 0.71467-2.0203 0.65352-3.0706-0.15152-0.1654-0.20403 0.77576-0.34602 0.71794-0.34426-0.40915-0.43471-0.99433-0.82768-1.363-0.27856-0.36459-0.83215 0.36626-0.60217-0.2335 0.27748-0.59454 0.9071-1.0389 0.94566-1.736-0.13807-0.59208-0.64649-1.0449-1.0513-1.485-0.50045-0.46132-1.1067-0.81296-1.7653-0.99086 0.17556 0.41589 0.89882 0.79522 0.39699 1.2748-0.42545 0.3873-0.66534 0.98442-0.08587 1.3453 0.32487 0.31163 0.24623-0.54871 0.41039-0.72376 0.03457-0.34915 0.42761-0.84705 0.61157-0.28481 0.01825 0.58863-0.42565 1.1015-0.42302 1.7013-0.09352 0.49552 0.70398 0.96657 0.29432 1.3769-1.0355 0.31099-2.0457 0.7214-3.0713 1.0712-0.80774 0.2884-1.6155 0.57681-2.4232 0.86521 0.07795 0.5391-0.65459 0.82067-0.5652 1.3519 0.30176 0.55557 0.48875-0.53822 0.81176-0.52914 0.19634 0.72456 0.26045 1.4822 0.37456 2.2251 0.43167 0.29697 1.1028 1.0102 1.5998 0.58986 0.30405 0.55328 0.98878 0.26263 1.5139 0.28278 0.58696 0.0878 0.63786-0.97056 1.0851-0.81677-0.0032 0.17364-0.04586 0.34294-0.07981 0.51228zm1.6497-1.4441c0.11628-0.17804 0.34721-0.39662 0.07162-0.0826zm-1.9737 0.66416c-0.78372 0.35181-1.7783 0.0219-2.2037-0.72355-0.35035-0.50309-0.56459-1.0831-0.76545-1.6578 0.43738-0.15624 0.87475-0.31247 1.3121-0.46871 0.15452-0.37162 0.72517-0.0825 1.0259-0.36613 0.72261-0.25798 1.4452-0.51596 2.1678-0.77394 0.3211 1.132 0.31636 2.5312-0.56586 3.4166-0.27562 0.26081-0.61475 0.44741-0.9709 0.57361zm-1.5948-7.8792c0.31731-0.55917 0.63301-1.1209 0.89155-1.7103-0.40657-0.0959-1.043-0.17393-1.0248 0.42001-0.16091 0.38215-0.73827 1.0154-0.6239 1.2389 0.25321-6e-3 0.50732 9e-3 0.75716 0.0515zm-1.3173-6e-3c0.36915-0.58487 0.71996-1.1815 1.1088-1.7538-0.59091-0.14531-0.88606 0.45997-1.1116 0.88303-0.14464 0.2966-0.61437 0.81659-0.55489 0.97024 0.18441-0.0409 0.37048-0.0745 0.55773-0.0994zm-3.6914 1.3584c0.41414-0.39309 1.1814-0.31395 1.4249-0.89291-0.03914-0.3119 0.23826-0.91301 0.0067-1.0444-0.60239 0.40519-1.1926 0.87431-1.5829 1.4948-0.05634 0.16768 0.09938 0.29792 0.15121 0.44252z"/>
<path d="m-69.766 212.52c0.23439-0.044 0.67674-0.32259 0.6594-0.3894-0.33578 0.3435 0.4599-0.0989 0.55372-0.25008 0.61394-0.69523 1.1477-1.4539 1.6132-2.2557 0.1391-0.20535 0.496-0.84397 0.27028-0.24001-0.0915 0.39462-0.35309 1.0808-0.36632 1.287 0.91026-1.0805 1.359-2.5422 1.1916-3.9471-0.3234 0.53468-0.57296 1.11-0.91907 1.6327-0.55734 0.93899-1.0883 1.8937-1.6964 2.8013 0.0258-0.28441 0.25701-0.87253-0.11188-0.38678-0.3236 0.43441-1.0871 0.44906-1.099 1.0656-0.05518 0.22262-0.10914 0.45128-0.09558 0.68239zm-1.6468 0.41781c0.26096-0.42202 0.54283-0.9009 0.71389-1.3347-0.13105-0.13019-0.26212-0.26038-0.39319-0.39056-0.21749 0.33035-0.49965 0.99853-0.65771 1.1279-0.02925-0.58447 5e-3 -1.2061 0.01378-1.7679-0.27066-0.26919-0.54129-0.53838-0.81194-0.80757-0.18805 0.14414-0.5018 0.24365-0.27522 0.53416 0.25233 0.89743 0.48235 1.8012 0.68711 2.7106 0.24206-0.0128 0.48335-0.0379 0.72329-0.072zm3.8087-4.2628c0.37583-0.41808 0.448-1.0099 0.61782-1.5386 0.18481-0.7449 0.40574-1.4802 0.63006-2.214-0.26296-0.62401-0.62545-1.2078-1.0753-1.7143-0.49276 0.5896-0.97114 1.1928-1.3961 1.8337 0.17131 0.22067 0.30299 0.64253 0.49691 0.20433 0.17856-0.26876-0.43761 0.62345-0.03545 0.14841 0.19487-0.30321 0.62833-0.89142 0.87858-0.85877-0.11061 0.70343-0.30469 1.3895-0.47771 2.0791 0.26038 0.6515 0.41259 1.3563 0.36118 2.0603zm-1.2719-3.6987c-0.07373-0.96613-0.0022-1.9369-0.07018-2.9025-0.62997-0.2974-1.3323-0.43285-2.0277-0.40698-0.02099 0.61545-0.04344 1.2308-0.05784 1.8465 0.89641 0.13546 1.6323 0.75414 2.1557 1.463zm-5.6598-0.55985c0.59183-0.33384 1.2144-0.62232 1.8729-0.79671 0.24101-0.58895 0.45552-1.1883 0.63167-1.8-0.38897 0.16926-1.061 0.14128-1.1222 0.65312-0.07322 0.26389-0.14814 0.68269-0.25603 0.20416-0.10746-0.60073-0.71892 0.17625-1.0278 0.30341-0.3504 0.22214-0.63971 0.4569-0.33502 0.84569 0.07589 0.19793 0.15196 0.39588 0.23651 0.5903zm-1.6367 0.60366c0.1888-0.27376 0.61603-0.92447 0.62439-0.99299-0.19773 0.29447-0.64067 0.65777-0.62439 0.99299z"/>
<path d="m-57.123 211.45c0.72584-0.25517 1.16-1.1803 0.6988-1.8524-0.29794 0.30025-0.26601 0.7991-0.43572 1.1762-0.14288 0.51311-0.32368-0.71985-0.52799-0.95011-0.17139-0.47083-0.32654-1.2123-0.902-0.60445-0.70488 0.46536-0.62974 1.527-0.03183 2.0454 0.31145 0.30706 0.80791 0.35769 1.1987 0.1854zm-3.5784-4.0069c0.2264-0.29193 0.4609-0.98967 0.5614-0.26276 0.72986-0.74077 1.4792-1.4622 2.2431-2.1678-0.13468-0.19175-0.27402-0.36761-0.51174-0.20802-0.22789 0.0359-0.5894 0.23149-0.58718 0.17842-0.20017 0.0609-0.40034 0.12184-0.60051 0.18275-0.33928-0.39984-0.62335-1.1466-0.97983-1.3367-0.30706 0.32586 0.01239-0.5437-0.34272-0.69475-0.35986-0.57013-0.71602-1.1426-1.0743-1.7137-0.29256 0.5458-0.50825 1.1281-0.67056 1.7247-0.36508-1.0006-0.50393-2.0686-0.52539-3.1293 0.28411-0.56991-0.47742-1.009-0.60246-1.5569-0.0016-0.37466 0.37623-0.58637 0.57706-0.86889 0.10946-0.16004 0.34454-0.31571 0.37932-0.47836-0.25796-0.5088-0.27708-5.9e-4 -0.35947 0.32656-0.2726 0.4931-0.81327 0.84183-0.98256 1.3436-0.3565 0.46655-0.18967 1.1127-0.27963 1.6597 0.01521 0.40848-0.16854 0.8146 0.15569 1.1361 0.65021 1.0386 1.3004 2.0773 1.9506 3.1159 0.17325-0.20075 0.43711-1.1868 0.37331-0.46818-0.07385 0.63892-0.04241 1.2381 0.40577 1.737 0.29642 0.48974 0.5878 0.98257 0.8701 1.4806zm0.02228-0.29014c-0.09877-0.21041 0.0239-0.10392 0 0zm-0.08275-0.65303c0.01815-0.33192-0.02019-1.2472 0.03651-1.2106 0.09728 0.43944 0.338 0.82925-0.03651 1.2106zm-1.5406-2.3746c-0.05244-0.0571 0.0645-0.0693 0 0zm0.24021-2.1672-0.0047-0.0271zm-3.303-2.048c0.61019-0.90544 1.1312-1.8698 1.7357-2.7799-0.53077 0.29749-1.0177 0.64437-1.3053 1.1947-0.18594 0.29301-0.3101 0.48532-0.14909 0.0251 0.31974-0.71029-0.5191 0.12881-0.81002 0.21862-0.41324 0.30175-0.96129 0.48886-1.2946 0.85547-0.28161-0.11492-0.29415 0.25772-0.04703 0.4411 0.16684 0.0388 0.39839-0.10296 0.58899-0.13051 0.3539-0.0121 0.4498-1.017 0.29624-0.27305-0.19692 0.40087 0.33868 0.0141 0.54351 0.0608 0.22384 0.01 0.33505 0.22394 0.44164 0.38766z"/>
<path d="m-52.59 201.91c0.52905-0.27917 1.1909-0.51943 1.4991-1.0523 0.18752-0.47322-0.05777 0.30805 0.22083-0.0778 1.1193-0.96539 1.8326-2.4125 1.7826-3.9036-9e-3 -0.67963-0.16256-1.3549-0.43443-1.9771-0.06663 0.43719-0.46212 0.70694-0.68894 1.0649-0.17754 0.33831-0.66326 0.64109-0.61891 1.0107 0.12317 0.74966 0.41471-0.21315 0.66784-0.44698 0.14088-0.1853 0.37736-0.56123 0.20376-0.13202-0.09106 0.39704-0.4947 0.60814-0.68826 0.95683 0.02187 0.44888 0.17054 0.97284 0.02647 1.4488-0.11604 0.53012-0.43394 0.99963-0.84168 1.351-0.08556 0.20007-0.40119 0.91606-0.34379 0.75856 0.05635-0.19129 0.3688-0.7207 0.27618-0.69825-0.4248 0.38313-1.0703 0.45703-1.1744 1.1079-0.08534 0.28136-0.60677 0.99059 0.0011 0.63568zm-1.067 0.31103c0.20959-0.42808 0.69734-1.0555 0.73458-1.365-0.50664-0.12127-0.67634 0.28169-0.88548 0.66418-0.12755 0.30271-0.75601 0.93102-0.07377 0.73251 0.07518-9e-3 0.1501-0.019 0.22468-0.0317zm-0.98737 0.0567c-0.04268-0.56132 0.2969-1.3175 0.05089-1.7521-0.34461-0.0532-0.9226-0.87173-0.8844-0.1893-0.03212 0.60539-0.69105 0.90804-1.0404 1.3478-0.09256 0.1918 0.49326 0.36245 0.55914 7e-3 0.17904-0.18939 0.44556-0.58554 0.30691-0.0884-0.33155 0.73549 0.54354 0.59416 1.0079 0.67456zm-2.4954-0.86809c0.19054-0.64457 0.44854-1.2596 0.74037-1.8643 0.3336-0.53671-0.53082-0.88402-0.7226-1.3745-0.17873-0.19568-0.39564-0.80962-0.44725-0.23837-0.23159 0.80804-0.4756 1.6126-0.69723 2.4234 0.33187 0.3942 0.70581 0.75522 1.1267 1.0537zm7.032-5.143c0.12796-0.22849 0.50151-0.58555 0.15534-0.1484-0.04886 0.0511-0.09131 0.11412-0.15534 0.1484zm-1.1852-0.21155c0.48228-0.58908 0.93998-1.2006 1.4672-1.7511-0.23013-0.6295-0.57111 0.35045-0.8542 0.55162-0.18788 0.36131-0.77229 0.70138-0.68634 1.0786l0.03681 0.0605zm-8.2874 1.9269c0.4621-0.68298 0.90134-1.381 1.3427-2.0775-0.10009-0.24221 0.0066-0.9141-0.25347-0.38674-0.12188 0.1253 0.27168-0.45782 0.19783-0.64758 0.01119-0.69628 0.61017-1.1161 0.85296-1.7029 0.17914-0.41847 0.36242-0.83516 0.54819-1.2507-0.41352 0.28581-0.97348 0.50266-1.1385 1.0194-0.47296 1.0402-0.92364 2.0903-1.4219 3.1189 0.20376-0.83743 0.43644-1.6675 0.67797-2.4947-0.94532 1.2404-1.2362 2.9281-0.80575 4.4219zm6.119-4.4206c0.11316-0.69517 0.22007-1.3914 0.33521-2.0862-0.80881-0.26406-1.6913-0.2824-2.5139-0.0699-0.0799 0.54228-0.39876 0.95151-0.75288 1.3491 1.0427-0.33373 2.114 0.18482 2.9316 0.80703z"/>
<path d="m-45.875 196.15c0.22866-0.15826 0.54282-0.89801 0.62562-0.73612-0.04405 0.30695-0.0091 0.4218 0.19851 0.12693 0.34533-0.36516 0.69748-0.72382 1.0539-1.0781-0.02023-0.30789 0.1766-0.98011-0.26421-0.58317-0.19792 0.11517-0.39584 0.23034-0.59376 0.34551-1.0412-2.137-2.0096-4.3083-2.9834-6.4763-0.32977-0.51146 0.4987 0.10267 0.74758 0.13603 0.40109 0.1283 0.9875 0.48827 1.2799 0.45928-0.05071-0.68493-0.0051-1.372 0.04407-2.0555-0.87357-0.35094-1.7456-0.70571-2.6135-1.0704-0.21026 0.35662-0.70589 0.66784-0.56624 1.1246 0.17092 0.75881 0.31436 1.5288 0.53222 2.2742 0.88833 2.0366 1.7782 4.0747 2.6113 6.1339 0.14454 0.38034-0.1308 0.70354-0.28593 1.0246 0.06503 0.10132 0.06744 0.36329 0.21396 0.3746zm4.4371-4.2937c0.28232-0.29139 0.69496-0.76824 0.86596-0.92827 0.45564-0.48477 0.91761-0.96359 1.3871-1.435-0.12759-0.46002-0.18119-0.989-0.76393-0.87809-1.8169-0.71216-3.6252-1.448-5.4371-2.1732 0.33801 0.85104 0.67364 1.703 1.0067 2.556 1.0814 0.45379 2.157 0.92159 3.2224 1.4118-0.21212 0.38784-0.42422 0.77567-0.63633 1.1635 0.11841 0.0944 0.23679 0.18879 0.3552 0.28318zm2.8248-2.9353c0.20022-0.26014 0.79027-0.53013 0.30048-0.76821-0.13916-0.16966-0.32586 0.10081-0.48776 0.1417-0.39816 0.0953 0.1553 0.41107 0.18727 0.62651zm-10.156-2.8968c-0.03651-0.1094 0.20466-0.1391 0 0z"/>
<path d="m-31.297 189.64c0.62079-0.62402 0.93069-1.5115 0.88017-2.3852 0.50187 0.77716 1.1066-0.91428 0.45728-0.9179-0.3341 0.25265-0.6682 0.5053-1.0023 0.75796 0.20605 0.58291-0.50423 0.99069-0.60387 1.5027 0.38608-0.12503 0.80371-1.2889 0.67348-0.39604-0.01043 0.45792-0.33534 1.352-0.61505 1.2766 0.07012 0.0539 0.14046 0.10758 0.21028 0.1619zm-0.30745-0.23639c-0.3174-0.80686-0.11415-1.7491-0.14799-2.6115-0.05626-0.35501-0.65207-0.64204-0.46767-0.0253 0.15779 0.68196-0.63492 1.7472-0.03468 2.0891-0.07323-0.12434 0.43077 0.46326 0.65034 0.54771zm-0.98436-0.75704c-0.44375-1.0782-0.77247-2.2966-1.7229-3.0452-0.5276 0.14685-0.1558-0.79144 0.32797-0.55812-0.42133-0.25164-0.9571-0.69814-0.8547-0.8567 0.16707-0.0533 1.1519-0.68478 0.7497-1.1547 0.0845-0.28066-0.27935-0.13176-0.47904-0.42501-0.16495 0.37883-1.0076 0.87773-0.78739 1.0381 0.03663 0.23653-0.62292 0.0709-0.82016-0.20999-0.31272-0.4918-1.2583 0.41517-0.88672-0.483 0.03618-0.3136-0.42651-0.41164-0.61899-0.62644-0.22997 0.12077-0.4137 0.53755-0.46912-0.052 0.26554-0.32237-0.18807-0.31109-0.41656-0.60072-0.3711-0.4743-0.64126-0.14704-0.89717 0.28512-0.12969 0.39907-0.81505 0.81053-0.78528 1.0099 0.4173 0.0295 0.69706-0.77393 1.0154-1.0928 0.31979-0.74279 0.72025 0.60898 0.17736 0.57416-0.28226 0.0942-1.0534 0.9716-0.63528 0.80805 0.29486-0.39112 1.4445-0.8692 1.1205-0.0792-0.2822 0.17494-1.0427 0.6194-0.40954 0.61806 0.38218-0.41615-0.14178 0.40532 0.40708 0.31846 0.77408-0.32766 0.54127 0.61765 1.0173 0.83654 0.27773 0.20465 0.55549 0.40929 0.83323 0.61395-0.43101-0.52166 0.2276-0.68843 0.48192-1.093 0.22763 0.50926-0.09515 0.87889-0.29111 1.2336 0.39084-0.0332 0.57942-0.11643 0.3965 0.29211 0.50194-0.0933 0.52639-0.91654 1.2615-0.82643-0.06512 0.61514-0.58552 1.8328 0.23492 1.8243 0.06278-0.42983 0.11242-0.96878 0.43965-0.32284 0.49944 0.75168 0.73584 1.5452 1.6109 1.9737zm-1.5094-5.7819c0.03132-0.0107 0.07738-0.0923 0 0zm-0.88016 1.874c-0.192 0.12173-0.28262-0.0523 0 0zm-0.6667 0.24186c-0.03226-0.44495 0.59883-0.19415 0 0zm0.56709-0.78782c-0.09777 0.0209 0.11563-0.13423 0 0zm-0.66459 0.25157c-0.23243-0.36496 0.86557-0.27454 0.20012-0.12507l-0.10323 0.0577zm-1.2639 0.43594c-0.24981-0.40301-0.28134-0.61971 0.27366-0.51927 0.91783-0.14053 0.04442 0.1578-0.27366 0.51927zm0.77436-1.0605c-0.42598 0.0419-0.94496 0.011-0.25044-0.0895 0.09089 0.0187 0.38389-0.17077 0.25044 0.0895zm1.8542-1.4876c0.43086-0.1845 1.1967-0.64964 1.1218-1.0096-0.63794 0.13322-0.84243 0.44896-1.1218 1.0096zm-3.3222 1.0855c-0.42612-0.31587 0.02363-0.91739 0.24035-0.80374 0.06355 0.30364-0.14754 0.53209-0.24035 0.80374zm-0.59399 0.14842c-0.26731-0.0336-0.01792-0.36008 0 0zm4.3877-2.107c0.48039-0.40783 0.9362-0.92094 1.1357-1.5298 0.18376-0.49152 0.30123-1.3613-0.48407-0.92012 0.65322-0.35115 1.0394-1.475 0.3212-1.877-0.50343 0.11968-1.5259 0.65528-1.3844 1.127 0.38731-0.4848 1.4848-0.95939 1.3289 0.11516-0.16259 0.41364-1.2597 0.7948-0.6312 1.1934 0.93966-0.56739 0.40719 0.92372 0.12609 1.2643-0.27588 0.12891-0.32388 0.36015-0.41224 0.62705zm-7.1439 0.92314c-0.27189-0.63677-0.02203-1.1867 0.71403-1.1624 0.5157-0.11346 1.1477-0.17509 0.44129-0.52595-0.27517-7e-3 -1.1499 0.36528-0.48119-0.0162 0.55903-0.38099-0.37626-0.34387-0.55055 6e-3 0.2401-0.24487 0.16204-1.0941-0.11097-0.51543-0.03543 0.57919-0.79908 1.2377-1.1181 1.0724 0.3426-0.5888-0.03568-1.5303 0.83054-1.6008-0.27684-0.38431-0.74284 0.0125-0.62429-0.58178 0.10837-0.23455 0.58678-1.0441 0.10442-1.0167 0.55244-0.22245 1.0264-1.3738 0.32234-0.61642-0.48596 0.19305 0.32825-0.669 0.27585-0.9956 0.36408 0.13623 0.39809 0.66845 0.74206 0.0937 0.54712-0.56968 1.1469-0.69774 2.0361-0.71611 0.65552-0.0965-0.74498-0.38755-0.63258-0.3949 0.08185-0.4495-0.669-1.2371-1.0676-1.1548-0.58149 0.25898-0.96623 0.87202-1.1956 1.1964-0.42289 0.16566-0.55823 0.86747-0.58982 1.0626-0.1736 0.0337-0.59304 1.1008-0.01909 0.81949-0.03785 0.41863-0.65055 0.56672-0.45408 1.1474 0.2056 0.84614-0.88876-0.15706-0.93214 0.6264-0.17216-0.29399-0.54769-0.29947-0.81519 0.0642 0.61814 0.39663-0.14083 0.81746-0.37437 1.0459 0.0917-0.40427 0.22958-1.0652-0.03921-0.3614-0.06809 0.48909-0.75395 1.2614-0.35832 1.6145 0.08725-0.78216 1.0164-0.68584 1.5584-1.0187-0.08797 0.44735 0.7158 0.8282 0.50079 0.14863-0.15555-0.55005 0.75448-0.70826 0.52709-0.0307-0.17354 0.49754-0.15404 1.0987 0.49738 1.083 0.6804-0.38136 0.0047 0.40624 0.54323 0.52977l0.13477 0.0988zm6.5632-4.3382c0.31925-0.71756 0.38251-1.4623 0.91638-2.0747-0.51483-0.74271-1.6004 0.86008-1.6651 0.69529 0.17073-0.58002 0.5361-1.2713 0.44039-1.8122-0.52886-0.47738-0.26302 0.86548-0.55135 1.1702-0.27152 0.50297-0.46105 1.3534 0.37364 1.24 0.69059-0.27725-0.13115 0.71365 0.33378 0.37871-0.18023 0.18693 0.09611 0.26628 0.15226 0.40267zm0.23048-1.2997c-0.31794-0.16512-1.178 0.26384-0.51956-0.18076 0.34851-0.23002 1.1188-0.55912 0.51956 0.18076zm-8.1442 2.9253c-0.3065 0.21801-0.87903 0.21749-0.30008-0.1059 0.27311-0.1798 0.30962-0.31527 0.30008 0.1059zm-1.0992 0.41579c-0.38466 0.13372-1.4193 0.58806-0.62591-9e-4 0.34528-0.32672 0.35015-0.46251 0.62591 9e-4zm0.40734-0.62475c-0.60293-0.49495 1.28-0.63907 0.33776-0.19363-0.10706 0.0733-0.21633 0.14593-0.33776 0.19363zm6.678-3.0184c0.2228-0.73599 0.31286-1.6684 0.34059-2.3242-0.40699-0.39011-0.24652 0.71143-0.45212 0.0357 0.25487-0.34343-1.4859-0.64272-0.7779-0.13059 0.62102 0.40581-0.04502 1.525-0.08791 1.615-0.18624-0.61497-0.30278-1.5143-0.6167-1.936-0.80627-0.0373-0.07468 1.2254-0.0016 1.7248-0.10907 0.51264 0.82577 0.74624 0.97942 0.55987 0.06008-0.44042 0.22755-1.428 0.36915-0.47944-0.07542 0.43703-0.36131 0.79464 0.24709 0.93497zm-5.2435 0.26441c-0.45155-0.24159 0.42585-0.56084 0 0zm2.0706-0.83036c-0.0277-0.18098 0.25974-0.12876 0 0zm-0.08235-0.44949c-0.52592 0.26143-1.1659-0.40113-0.84949-0.84486 0.29707 0.26748 0.58291 0.54698 0.84949 0.84486zm-1.3437 0.0298c-0.13864 0.0794-6e-3 -0.14333 0 0z"/>
<path d="m-29.584 175.97c0.30898-0.46802-0.12218-1.1238-0.06169-1.6742 0.34146 0.33674 0.59228 1.1389 0.97965 1.2372 0.27277-0.53661 0.34494-1.1727 0.41476-1.7707 0.0045-0.419 0.13962-1.1159-0.10577-1.3363-0.41924 0.31327-0.56705 0.70211-0.39821 1.2142 0.0073 0.27751 0.27028 1.3726-0.10826 0.66859-0.24258-0.2728-0.35131-0.80927-0.73874-0.40678-0.30514 0.10401-0.75211-0.0926-0.54757 0.37927 0.04277 0.3105 0.09248 0.63241-0.10971 0.15077-0.03326-0.55336-0.94277-0.89056-0.95992-0.16665-0.1144 0.50623 0.50758 0.6668 0.78075 0.98856 0.28562 0.23783 0.57053 0.47653 0.85472 0.71607zm2.596-3.243c0.23673-0.8728 0.50101-1.7379 0.77699-2.599-0.1558 0.0358 0.24697-1.2166-0.2168-0.79945-0.33391 0.22165-0.18877 0.66061-0.2648 1.0012-0.02637 0.49635-0.17684 0.96988-0.25811 1.4585-0.15583 0.40225-0.61152-0.41651-0.72634-0.64539-0.24972-0.41206-0.37394-0.8889-0.63313-1.294-0.2718 0.14746-0.08521-0.17979-0.40196-0.25574-0.46479-0.36633-0.13172 0.61582-0.21112 0.87304 0.02706 0.60831 0.12356 1.2543 0.38087 1.7926 0.26458-0.0769 0.53827-0.65296 0.41455-0.65025 0.20806 0.39212 0.63446 1.212 1.1544 0.79856-0.0061 0.10655-0.01149 0.21315-0.01453 0.31984zm-4.4252 1.7209c-0.08031-0.22582-0.47527-0.61052-0.26106-0.21542 0.08708 0.0717 0.17387 0.14383 0.26106 0.21542zm1.8148-3.3315c0.31374-0.3152 0.67025-0.58709 0.41798-1.0853 0.05548-0.3938-0.23799-1.1413-0.5559-0.88464 0.0233 0.19904-0.10751-0.32842-0.35574-0.32001-0.21077-0.11528-0.53702-0.3924-0.42161 0.0805-0.02112 0.57842 0.0067 1.1587 0.09343 1.7312-0.34739-0.76242-0.49602-1.5917-0.71169-2.3952-0.26277-0.18329-0.52854-0.3342-0.64566 0.10177-0.31307 0.41427 0.05468 1.2908-0.04348 1.5027-0.58255-0.79036-0.89712-1.7466-1.1948-2.6628-0.37111-0.14489-0.90835-0.63887-1.1668-0.56956-0.02326 0.58628-0.06596-0.2222-0.18273-0.4092 0.09226-0.50922-0.04346-1.0312-0.02366-1.548-0.36226 0.1515-0.50736 0.82708-0.40428 1.264 0.07953 0.98432 0.14985 1.9988 0.54602 2.9159 0.4963 0.50438 0.82161-0.22044 0.60677-0.66668-0.04366-0.29958-0.13882-1.0088-0.10085-1.065 0.1486 0.79047 0.31511 1.5816 0.58678 2.3402 0.25314 0.27242 0.43525-0.15812 0.52295 0.29348 0.41062 0.23055 0.82122 0.46112 1.2318 0.69168 0.17149-0.20111 0.08791-0.79339 0.19805-0.26167 0.02095 0.34648 0.22548 0.55135 0.52932 0.66996 0.23052 0.12942 0.46101 0.25884 0.69152 0.38826 0.15786-0.24639-0.06044-1.0334 0.17563-0.42636 0.02572 0.24735 0.28557 0.21029 0.2069 0.31475zm-2.2002-2.6428c-0.06532-0.1027 0.17082-0.0926 0 0zm-4.6702 0.7968c0.15613-0.15443 0.31224-0.30885 0.46838-0.46329-0.24742-0.28589-0.51811-0.84579-0.68992-0.21471-0.29928 0.28457 0.08121 0.43332 0.22155 0.678zm0.70464-0.69741c0.22176-0.28951 0.6378-0.22663 0.44362-0.69041-0.0677-0.3773-0.05166-1.3159-0.20372-1.3246-0.44432 0.48285-0.33509 1.0733-0.26178 1.6672 0.0087 0.11585 0.01613 0.23179 0.02187 0.34782z"/>
<path d="m-24.754 165.4c1.6916-0.65694 2.732-2.353 3.0881-4.066 0.14547-0.70967 0.14698-1.4518-0.02437-2.1571-0.11396 0.1229-0.38739 0.45611-0.13561 0.0944 0.21161-0.51191-0.25998-1.2293-0.57567-1.626-0.32805 0.0605-0.8364 0.73821-0.93274 0.6477 0.10862-0.561 0.64222-1.3766 0.02139-1.7645-0.45009-0.27978-1.1334-1.1607-1.4877-0.37369-0.29944 0.33754 0.2102-0.7361-0.27806-0.68684-0.44992-0.09-1.0767-0.60308-1.4269-0.15932-0.25778 0.22818-0.73593 0.82889-0.80851 0.90479 0.08812-0.20985 0.08873-0.23302 0.09326-0.24316 0.06888-0.3303 0.79995-1.054 0.13703-0.98131-0.54775-0.1435-0.4206 0.65677-0.69613 0.96962-0.106 0.33746-0.53177 0.83826-0.45527 1.0594 0.60557 0.23731 0.87089-0.32623 1.2447-0.69907 0.24862-0.24342 0.99789-1.0415 1.0599-0.34988 0.10464 0.50927-0.07348 1.1586-0.0088 1.5702 0.44861 0.3092 0.60686-0.4374 0.90584-0.67458 0.25582-0.21977 0.73844-0.98449 1.0157-0.5983 0.13596 0.72325 0.02964 1.4637-0.12365 2.1751 0.36748 0.14956 0.63627 0.75059 0.99835 0.48521 0.13023 0.49634 0.38263 0.93879 0.54307 1.4305 0.02429 0.39481 0.10364 0.37714 0.27659 0.0461 0.16159-0.3774 0.70732-0.45674 0.62757 0.0832 0.01878 0.50192 0.10238 1.1445-0.57392 1.1417-0.6399 0.14961-0.6003 0.94589-1.0904 1.3072-0.42346 0.43419-1.0152 0.67785-1.6136 0.73536-0.31693 0.26442 0.02507 0.6401 0.06476 0.63123-0.32992 0.52065-1.0556 0.56961-1.563 0.87671 0.41283-0.3025 0.55199-0.84113 0.88073-1.2256 0.28805-0.57491-0.72208 0.0722-0.91337 0.21964-0.60717 0.43928-1.2126 0.88961-1.8823 1.2308 1.1641 0.42041 2.4786 0.48859 3.633-3e-3zm-0.03813-1.2572c0.28559-0.34996 0.7106-0.59108 1.0757-0.87386 0.39294-0.23145 0.79242-0.5514 1.2629-0.56942-0.1048 0.26432-0.90125 0.52735-1.2595 0.79268-0.36893 0.20059-0.74326 0.39629-1.079 0.6506zm-3.8788 1.1565c0.19154-0.34825 0.51599-0.79217 0.64162-1.0104 0.11435-0.15605 0.53504-0.70578 0.46974-0.59743-0.11626 0.12856-0.63048 0.81945-0.25112 0.3512 0.1604-0.29133 0.866-0.69821 0.19776-0.75413-0.41771-0.17076-0.74523 0.38793-1.1226 0.54578-0.60145 0.44938 0.14544-0.28127 0.27434-0.49405 0.55737-0.46505-0.55893-0.50907-0.83588-0.8125-0.36675-0.36791-0.8091 0.0588-1.2152 0.14574-0.25879 0.0745-1.0443 0.40544-0.98974 0.20722 0.36182-0.38726 0.75971-0.73849 1.164-1.0803-0.43066-0.67625-0.82629 0.39732-1.219 0.67015-0.33631 0.18335-0.06167 0.62606 0.1188 0.18341-0.43498 0.34683 0.22401 0.76094 0.42053 1.0865 0.34865 0.0218 0.78061-0.26785 1.1781-0.31417 0.29698-0.0578 1.0519-0.33016 1.0525-0.12025-0.3228 0.45312-0.91941 0.97662-1.0206 1.427 0.41643 0.46726 0.80774 0.031 1.1941-0.23473 0.51025-0.40009-0.23594 0.39058-0.34923 0.60473-0.12396 0.0952 0.24769 0.1491 0.29187 0.19627zm-2.2263-4.1017c-0.35623-0.27652-0.24629-1.1328-0.83662-0.7914-0.3427 0.10416-0.5164 0.0421-0.1881-0.20304 0.43397-0.32057 0.58169-0.74976 0.64642-1.2647 0.24436-0.8199 0.8716-1.5444 1.7129-1.775 0.35456-0.49021 0.7952-0.92492 1.1057-1.4421 0.06688-0.61292-0.97768 0.43891-0.51736-0.16167 0.17429-0.24711 0.36284-0.51759-0.06999-0.29148-0.44885 0.15026-0.5567 0.70817-0.84413 1.0483-0.83151 0.62779-1.5392 1.4076-2.1544 2.2452-0.07321 0.23391-0.34058 0.97102-3.2e-4 0.43266 0.30337-0.4438 0.97042-1.1052 1.2276-1.2346-0.15321 0.23818-0.44522 0.65108-0.08821 0.19607 0.12226-0.14886 0.56618-0.69586 0.21699-0.25308-0.33655 0.38438-0.58678 0.86155-0.8807 1.2523-0.57234 0.231-0.86421 0.65942-0.78145 1.2772-0.0108 0.45183 0.04159 0.90522 0.15695 1.3423 0.43711-0.10553 0.86773-0.23654 1.2948-0.377zm-1.3292-0.77288c0.08343-0.14966 0.50416-0.60306 0.1449-0.18055-0.04861 0.0599-0.09695 0.1201-0.1449 0.18055zm2.1351-3.1301c0.06125-0.18221 0.51348-0.44051 0.16755-0.1469l-0.08295 0.0747z"/>
<path d="m-19.835 154.64c0.6424 4e-3 1.2178-1.2299 0.83134-1.2752-0.4274 0.36678-1.5914 0.48436-0.86562 1.1021zm-1.1743-1.1866c0.4815-0.34729 1.2671-0.69265 0.33251-0.98677-0.42187-0.71704-2.3403 0.12552-1.0191 0.50373 0.39875 0.28444 0.30316-0.0977 0.36998 0.26041 0.10559 0.0742 0.21116 0.14835 0.31666 0.22263zm-2.0851-1.4585c0.37037-0.31186 1.0769-0.62106 0.30738-0.87975-0.18723 0.32722-1.0911 0.62205-0.30738 0.87975zm0.02433-1.0652c-0.48461-0.65529-1.736-0.74545-1.972-0.27449 0.69451 0.62908 1.1152 0.68731 1.972 0.27449zm5.339-2.5658c0.40742-0.69838-0.25977-1.3392-0.87782-1.233-0.47804 0.0223-0.99379-0.0389-0.38144-0.42092-0.39062-0.75084-1.5654 0.76662-1.096-0.33726 0.10532-0.81764-1.0986-0.86226-1.5373-0.23259 0.64871 0.23087 1.0676 0.82671 0.23238 0.86235-0.88256 0.14353 0.54559-0.46436-0.26817-0.26819-1.1761 0.18102-2.3266 0.27937-3.5178 0.44076-1.1067-0.11172-2.4328 0.76231-2.7875 1.5213 0.76718 0.65743 1.5252-1.7266 2.0742-0.54788-0.53441 0.87017-0.8838 1.6538 0.13908 2.0248 0.47845 0.31749 1.7224-0.39606 0.57645-0.64754-0.80962-0.37076-0.38811-0.40471 0.27255-0.42632 0.97308-0.15974 1.9928-0.15132 2.9369-0.40462 0.22409-0.0798 0.72681-0.50302 0.40145 0.0274 1.0808 2e-3 1.7574-0.69109 2.8598-0.2716 0.32442-0.0291 0.64868-0.0601 0.9733-0.0866zm-3.0502 0.26124c0.05415-0.51879 0.44678-0.49446 0 0zm1.4128-1.5416c-0.06441-2e-3 0.19745-0.16952 0 0zm-5.5589 1.9438c0.4282-0.38207 1.8066-1.1917 1.7722-0.76709-0.58313 0.27323-1.1836 0.50629-1.7722 0.76709zm-0.23315-0.71675c-0.91858 0.0609 0.82517-0.48444 0.1577-0.0716zm4.2527-2.79c-0.75773-0.51275-1.4787-1.1326-2.4313-0.72169 0.73986-0.55065-0.10395-1.2503-0.49204-0.40197-0.01807 0.57575 1.3299 0.99651 1.8536 1.5068 0.35676-0.12731 0.71408-0.25299 1.0698-0.38317zm3.8307-1.6178c0.92206-0.91476 0.72632-2.3678 1.1626-3.527 0.31949-0.64241-0.0054-1.7885-0.43445-0.55197-0.90923 0.44353-0.47321 1.5223-0.70532 2.3636-0.06968 0.58198-0.18843 0.80889-0.11353 1.408 0.0388 0.0887-0.06633 0.33144 0.09071 0.30732zm-9.4811 3.634c-0.08222-0.0657 0.2167-0.20974 0 0zm9.0636-4.9684c-0.81297-0.50772-1.2463-1.8763-2.1773-1.8575-1.1837 0.23701-1.8021 0.2689-3.0705 0.4442-1.3491 0.18922-2.7002 0.36406-4.0523 0.53117-0.36267 0.86412 0.57237 0.56759 1.145 0.61799 0.56146 9e-3 1.3052 0.0451 0.38348 0.35484-0.49783 0.25413-1.1741 0.56872-0.30575 0.8497 0.89514 0.11482 1.8315-0.77083 2.2831-1.5541 0.24779 0.59849 0.73151 1.4932 1.1791 0.47487 0.33684-0.42787 0.36336 0.98604 1.0393 0.47618 0.61177 0.0429 1.1204-0.15474 1.0585-0.86601 0.55202 1.1216 1.537 0.48297 2.5172 0.52873zm-2.7205-0.36193c-0.33256 5e-3 0.24478-0.52189 0 0zm-2.2256 0.86277c-0.21135-0.10806-0.46796 0.13716 0 0z"/>
<path d="m-11.435 137.1c0.62663-0.0168 1.6022-0.91646 1.0977-1.3905-0.29401 0.1362-0.75257 0.29462-0.29825-0.11202 0.25926-0.20437 0.97351-1.3242 0.27321-1.0386-0.63849 0.76148-1.2348 1.6234-2.1553 2.0653 0.24102-0.41214 0.83844-0.69985 0.97548-1.1201-0.63217 0.0369-1.1536 0.71107-1.3409 1.2241 0.46524 0.14689 0.97156 0.23121 1.4481 0.37187zm0.21681-1.8161c0.40576-0.57781 1.3074-0.88989 1.3186-1.6397 0.082077-0.64901-1.0684 0.49208-0.34146-0.18872 0.42893-0.11972 0.52051-1.2395-0.02671-0.60933-0.772 0.40222-0.45274 1.3621-0.81695 2.0642-0.04189 0.12544-0.0866 0.24992-0.13352 0.37355zm-1.6371 0.47506c-0.38838 0.0516-1.3606 0.28533-0.45579 0.14786 0.15583-0.0362 0.30733-0.0887 0.45579-0.14786zm-6.5045 0.81131c0.4003-0.34155 1.2896-0.90427 1.0967-1.3815-0.58324 0.0795-1.2172-0.2063-0.51254-0.70553 0.35378-0.37378 0.90476 0.31578 1.1359-0.34991 0.69173-0.56663 0.95654-1.4328 1.423-2.1632 0.33035-0.54897 0.72264-1.0766 1.2451-1.4572-0.66653-0.45246-0.76605-1.4203-1.3315-1.8809-0.66518 0.32531-1.0493 1.0704-1.4825 1.6514-0.83793 1.2926-1.3468 2.8107-2.4098 3.9471-0.95821 1.0491-2.7261 1.0974-3.7706 0.15138-0.43462-0.39856-0.58177-1.204-1.1772-0.49718-0.61881 0.5057 0.13317 1.2036 0.394 1.7005 0.46182 0.61939 1.1099 1.1094 1.8523 1.3361 1.0259-0.39787 2.1535-0.16655 3.2231-0.31644 0.1049-0.01 0.20966-0.0212 0.31415-0.0347zm8.5811-4.0767c0.25001-0.19275 1.1051-1.0686 0.56707-1.0665-0.26272 0.30023-0.80893 0.58675-0.56707 1.0665zm-0.33747-1.1699c0.18105-0.42353 1.0182-1.5229 0.30437-1.5529-0.24063 0.4583-0.84122 1.0084-0.33062 1.5035l0.01979 0.0372zm-5.0931 0.51519c-0.91664 0.36436-0.69483-1.3432-0.69506-1.4475 0.3393 0.41955 0.50934 0.94856 0.69506 1.4475zm3.8503-1.6555c0.294-0.39958 1.4571-1.1188 0.68668-1.526-0.1436 0.60926-1.0376 1.1097-1.5345 0.70749 0.02564-0.33258 0.90432-1.5299 0.07744-1.2488-0.17794 0.32649-0.66146 1.1345-0.45836 0.27844 0.04186-0.8664-1.5194-0.55484-1.7959-0.0382-0.11381 0.6459 0.06149 1.6012 0.65116 1.9407 0.69958-0.22031 1.4054-0.47951 2.1429-0.18912l0.11614 0.035 0.11446 0.0405zm-13.145 3.8284c0.47124-0.43266 1.085-0.91915 0.65898-1.6137-0.12007-1.148 0.10382-2.3225 0.597-3.3632 0.91411-0.16434 1.8282-0.3287 2.7423-0.49304 0.8316-0.77765-0.6238-0.89876-1.1014-0.54664-0.50372 0.18123-0.22898-0.0491-0.14352-0.32669-0.60938-0.24463-1.3224-0.28747-1.9713-0.46052-0.40375 0.16129-0.64605 1.3016-0.52569 1.5059 0.94274-0.12435-0.66903 0.51324-0.35981 1.0959-0.14978 0.98028-0.23904 1.9772-0.12591 2.9681 0.3189 0.18951-0.10985 0.80854 0.20642 1.1521l0.02293 0.0818z"/>
</g>
<g transform="rotate(-22.5 34.183 -705.48)">
<g transform="translate(-50.373 -62.29)">
<path d="m-148.66 204.12c-7.7872 0.12706-15.533 1.5976-22.669 4.7749 7.2366 2.2694 13.818 8.566 21.111 6.6513l6.115-0.33945c-0.67926-2.464-8.992-6.8213-1.6628-6.8578 6.4246-3.9941 3.1563-2.5884-2.8934-4.2289zm17.697 0.69659c5.254 0.97127 12.95 7.1191 3.8407 9.0913-3.4691 1.0024-6.5564 4.3011-1.3124 1.7456 2.536-2.0426 9.872-4.9247 6.1692 0.55619-1.7917 2.8736-11.1 0.3805 1.6013 3.6937 4.9231 1.9943 17.156-4.9202 16.31 4.3099-2.2701 0.81837-7.493 3.0715-1.9641 2.8452 5.9881-1.1977 10.607-8.5034 2.8221-10.965-8.2445-5.6036-17.665-9.4693-27.467-11.277zm-44.566 5.9619c-8.6308 1.6075-1.2068 8.4462 2.5223 11.599-6.4695 0.16211-14.499-4.0841-19.173-0.61457-4.9964 3.5193 0.79628 1.0332 2.883 3.8066-6.5554-3.5612-11.176 3.5384-11.764 8.5426-4.8646 1.0267-7.1188 7.2572-4.6421 7.7982-3.8942-1.0721-6.2065 5.4393-0.46247 3.4964 3.2357 0.16814 12.18 1.2491 10.03-2.7183-3.6819-0.16301-9.4492 0.61624-3.5424-2.4247 0.5117-3.6706-7.8663-2.4151-1.0081-4.8156 2.5081-1.5689 7.9031-4.1236 4.9702-7.6962 5.5094 0.0871 12.116 5.705 16.01-1.0361-8.6482-5.0294 6.4744 1.8174 7.3846-4.5659l4.4229-2.0601c-3.1186-2.5433-6.0272-5.5691-7.6316-9.311zm21.568 0.84543c0.51947 0.31924-0.0468 0.13973 0 0zm37.208 0.15399c2.9146 1.9202 11.164 5.7571 3.3878 5.447-2.8576 1e-5 -12.759 2.9034-5.9866-0.64293 1.6889-0.9438 2.7798-2.8526 2.5988-4.8041zm23.828 13.076c-1.9168 4.677-16.05 5.8794-5.2302 11.191 4.3333-0.46572 13.249 2.1992 14.6 0.35211-0.52914-4.4862-10.272-2.4523-2.991-4.2252-1.752-3.9205-13.829 3.8247-12.473-1.2924 1.2857-1.8014 9.5113-3.7043 6.0942-6.025zm-111.7 17.215c0.38567 0.52422-0.93399 0.14695 0 0zm125.76 2.6034c-4.079 2.822-17.989-1.9461-9.3959 6.73 0.94191 2.0606 12.189-0.26353 4.8997 1.6652-4.8908-1.0681-4.2221 4.6646-0.14523 2.331 4.7161-0.74467 10.139-3.249 5.7696-8.2844-5.7263-0.28298 2.8123 1.1698-1.1281-2.4418zm-131.27 0.73226c-1.1961 2.3643-3.436 6.0606 0.5364 5.3211-4.6139-0.75369-4.7926 4.8799 0.0996 2.7231 4.5014-1.6805 11.277 3.721 10.962-4.9416-4.1516-0.0975-7.8884-1.3028-11.598-3.1026zm131.51 7.2946c0.24519 0.53493-1.6369 0.40328 0 0zm-122.97 2.8376c-3.9866 0.67048-12.022 1.796-11.983 5.0725 2.8374-0.29112 12.939-0.49149 5.1344 0.83442-2.4754 0.22498-10.666 1.9749-6.5044 3.7793 4.9589-2.1297 14.041-0.17692 12.977-8.63l0.37558-1.0564zm-14.548 10.011c-3.7627 5.6259 8.8263 2.2348 2.4657 5.9768-5.0466 2.4592-1.9893 3.7309 1.2674 0.40807 3.8823-1.4071 9.7461-6.4162 1.8161-6.1831-1.8492-0.0815-3.6987-0.16132-5.5492-0.20174zm143.84 0.36173c-2.7498 1.0647-14.096 1.872-9.5653 3.9799 2.3844-1.5146 10.839-0.0169 9.5653-3.9799zm0.4563 3.7228c-2.3884 2.1765-13.704 5.258-9.5536 6.088 2.881-1.8759 8.5202-2.9312 9.5536-6.088zm-11.114 9.6216c-4.5063 6.1328 6.2485 6.4864 4.0483 12.057-2.256-0.6504-9.2178 0.35242-5.54 2.8366 7.6299 0.0485-3.845 0.41169-1.7004 3.5263 3.7152-3.4999 10.152-2.6367 12.799-4.8139 0.57142-2.7745-3.6886-0.54187-0.49818-4.0551 1.1213-5.2148-5.4171-7.7229-9.1092-9.5505zm-133.47 4.437c-2.3494 5.4041 9.3706 3.1473 2.9233 7.749-4.8677 6.6108 5.0502-1.4945 7.0146-3.8231 2.0972-4.6159-7.4068-3.3717-9.9379-3.9259zm129.05 17.849c-2.0571 2.4064-6.3006 7.8697-0.1188 5.88 3.4549-0.3112 12.292 0.11202 10.088-4.0936-3.3428-1.2406-10.569 2.7405-9.9687-1.7864zm-115.49 1.1684c-3.6605-0.18923-12.302 2.1372-6.2426 4.3444 1.7208-0.68606 6.6185-2.8948 6.2426-4.3444zm4.669 6.811c-3.0828 0.54927-14.061 0.25347-7.8682 3.7032 6.4299-1.494-4.111 2.1211 1.6782 1.7883 1.1422-0.81105 12.2-4.7736 6.19-5.4915zm118.63 0.40979c-5.6752-1.2353-12.519 3.4488-13.773 5.4039-3.0568-0.76025-9.7811 5.0784-3.6064 2.9217 5.7256-2.0479 14.408 0.40008 16.558-6.7921l0.41587-0.76424 0.40577-0.7692zm-8.1607 1.5012c2.3229 0.15457-1.5252 0.21973 0 0zm-104.88 2.4055c-3.3714 1.4433-16.275 1.8946-9.5409 4.9734 1.9116-2.068 14.102-1.1222 9.5409-4.9734zm6.0844 6.7458c-3.9908 1.124-12.028 0.34425-13.737 2.1751 1.7169 4.5088 12.937-0.94922 11.638 1.0945-2.5616 0.64918-10.904 5.7302-4.1915 3.3419 2.269-2.3394 14.644-2.5867 6.2906-6.6116zm80.945 3.512c-3.9268 3.1575-8.2488 5.8277-12.827 7.9282 3.9404 0.28361 5.4649 0.15375 1.2366 2.2202-4.8161 1.2797-0.40963 11.979-4.3311 4.2387-5.4366-1.4377-8.7095 9.2301-14.091 5.7538-3.5627-1.0606-2.3242-4.3898-7.5179-5.226-2.5359-1.7826-7.1748-1.3396-7.6948-0.89622-2.7963-4.4958-6.8168 6.2956-12.106 3.7102-10.661 0.0857 14.129-4.8848 5.5419-5.5787-4.9819 1.5414-9.5676 5.172-14.852 5.0889-8.9076-0.26287 4.5492 4.8532 7.8878 3.823 3.2976-0.43043-1.7042 2.4638 2.9186 2.1341 3.0695 2.33 7.4718-4.7115 3.4511 0.74856 2.8014 0.98465 8.2116-4.4146 8.9278-1.7706-3.0675 1.1124-8.1292 2.7373-1.936 2.4971 4.2522-1.8535 10.034-3.6118 12.436 0.0459 5.1197 0.3081 13.313-1.3185 13.701-4.7156 2.9891 5.0656 11.77-2.8958 16.548-4.4174 4.2805-0.88792 2.368-7.7974 8.1784-5.478 3.6245-2.7427 9.617-6.642 1.6918-7.5703-2.3789-0.86982-4.7709-1.7054-7.1631-2.5361zm-72.015 3.6225c-3.5195 2.0844-12.548 2.6305-12.659 4.9945 2.5352 2.0069 14.668-4.9027 6.2427-0.0582-4.9708 2.0823-2.4704 3.7291 0.91261 0.46304 1.0257-0.73014 5.794-3.2762 2.0573-1.0497 2.9391-0.89435 7.571-5.0403 2.5141-2.5973 0.42363-0.58079 3.7789-1.0755 0.93276-1.7523zm70.989 5.5428c2.7874-1.1379-0.3134 2.3244 0 0zm-58.761 0.59532c-4.1798 2.3197-14.061 3.6675-14.652 5.9465 3.0602 1.2906 12.208-4.2043 4.8148 0.167-4.7732 3.874 6.7634-2.7245 9.4935-3.8609 1.1207-0.74994 5.7384-1.8013 0.34318-2.2526zm54.659 3.9c0.11387 0.0554-0.13523 0.18685 0 0zm-16.358 3.4577c-0.17338 0.67992-1.437 0.51242 0 0zm-26.318 0.0265c2.9846 1.2413-3.4098 2.0054 0 0z"/>
</g>
</g>
<g transform="matrix(1.0929 -.45271 .45271 1.0929 11.068 85.071)" style="font-feature-settings:normal;font-variant-caps:normal;font-variant-ligatures:normal;font-variant-numeric:normal" aria-label="Certified">
<path d="m83.146 159.2c-0.17779 0.48107-2.4192 0.76324-0.97152 0.0822-1.0093 0.4503-0.9323 2.9463 0.69708 2.1999 1.2667 0.1735 2.2847 0.0983 1.8273-1.4522 0.32515-1.326-0.71475-0.68201-1.5529-0.82983zm8.7406 0c-0.30886 1.8991-2.8706 1.9639-3.2401 1.7368-0.33639 1.4726 0.26726 3.322-1.8663 2.695-0.14329 0.73611-0.55418 2.677 0.9814 2.0944 1.3009-0.17586 0.37387 1.8763 0.65234 2.7229v4.4152c0.82372-1.3363 3.7079-5.6002 2.0398-2.0102-1.5769 1.7749-1.0689 5.3709 1.0474 2.4745v-7.6024c1.0089-0.13684 2.8526 0.56108 2.3482-1.0892 0.48719-1.605-1.4038-0.83188-2.3482-1.0053-0.59612-1.9418 1.4748-2.3891 2.3482-2.6229 0.19691-1.7129-0.08915-1.899-1.9627-1.8089zm3.5171 0c0.12739 0.99633-0.54965 2.7971 1.0892 2.282 1.4179-0.67462 1.1395-3.043-1.0892-2.282zm2.6386 0c-1.1149 1.2138-0.31092 3.4253 0.45889 1.7374-0.18898-0.51221 0.44798-1.9665-0.45889-1.7374zm23.731 0c0.0579 1.0549-0.25774 4.3121 0.54922 1.3644 0.32132-1.1353 0.81657-1.5285-0.54922-1.3644zm-24.78 0.045c-0.17255 0.14634-0.74122 0.32516 0 0zm-53.548 0.55036c-3.2805-0.84079-4.0098 2.7376-6.4831 3.7214-1.0799 0.39321-1.2551 2.467 0.14814 1.0313-2.241 2.1673-1.4515 5.8274-0.01358 8.2586 1.4477 2.1658 5.5471 4.1594 7.6372 2.1613 0.86377-1.1356 1.2981-2.7732 1.1777-0.45968-0.55451 2.7287 5.9739-2.1986 3.9207-3.4269-2.196-1.6-2.6604 0.37847-4.2888 1.7261-3.3947 1.7552-7.1144-1.5002-6.519-5.0855-0.59871-3.5613 3.0952-6.6599 6.436-4.9785 1.2633 2.2504 4.2825-2.149 1.5152-2.3282-1.1132-0.46491-2.3316-0.6188-3.5302-0.61996zm48.289 0.49558c-0.31174 0.36777-0.18666-0.11501 0 0zm33.137 0.18965c-1.0622 1.5516-3.0257 1.7795-3.098 2.5415-0.0796 1.2939 0.45332 3.7397-0.98599 1.2152-2.9635-2.3277-7.2954 0.36173-7.1308 3.9718-0.44309 2.3086 0.26406 7.9351 3.0946 4.0575-0.10947-2.1625-0.13522-8.6626 4.0577-6.1604 1.7066 2.158 1.609 7.8278-2.1255 7.4952-1.0902-2.0676-3.2355 1.072-2.5144 1.8113 1.9851 1.7589 5.3652-1.3829 5.6402-1.294-0.55212 2.2022 1.7997 1.238 3.0562 1.4415 0.0295-2.8477-8e-3 -6.0078 6e-3 -9.0026-1.2859 2.3706 0.58475-1.2344 0-2.5309v-3.5463zm-47.537 0.66869c-0.84494 1.4074-3.8584 4.3295-3.6308 4.577 1.1975-0.10108 0.27948 1.9134 0.56637 2.7229 0.12084 2.0486-0.3204 4.1994 0.41534 6.1482 1.1986 1.7706 5.9757 1.9038 5.0417-1.0291-2.3326 0.80475-2.6037-1.8842-2.3926-3.6428v-4.1992c0.99198-0.12451 2.7793 0.54631 2.2603-1.0892 0.48567-1.5742-1.3267-0.85036-2.2603-1.0053 0-0.82751 2e-6 -1.655 2e-6 -2.4825zm-27.753 1.4185c-1.4922 1.6866-1.7548 2.5483 0.44266 1.6285 0.77918 2e-3 -0.39793-1.3238-0.44266-1.6285zm21.613 0.83251c-2.3128-0.79054-3.1007 5.0804-2.981 0.9882 0.08644-1.4349-2.0328-0.48213-3.0166-0.75669 0.1691 3.9732 0.05497 7.9524 0.08837 11.928 0.95835-0.13483 2.4476 0.26128 3.098-0.18153 0.12543-2.6388-0.31137-5.351 0.35952-7.9255 0.96188-2.3786 4.3799-0.29121 3.4108-3.4754 0.23123-0.66851-0.56687-0.50431-0.95911-0.57759zm-13.549 0.0109c-4.0892-0.40994-6.3622 4.0099-5.5321 7.5657-0.49854 2.3171 4.6544 6.9994 3.8669 2.5703-0.70697-1.9121-1.2977-4.0722 1.4731-3.3561 1.7932-0.5237 2.2193-2.6715-0.18362-1.9399-2.9109 1.0273-2.0642-2.9988 0.33177-2.8887 2.0746-0.11964 2.1116 3.5208 3.2003 0.47142 1.6342-1.707-2.0074-2.4443-3.1563-2.4227zm48.948 0c-4.0892-0.40994-6.3622 4.0099-5.5321 7.5657 0.0856 2.7622 2.6611 5.3884 4.912 2.6306-1.9324-0.56256-2.6691-4.3643 0.065-3.4163 1.5997 0.52651 2.6583-2.984 1.5101 0 1.4228-0.12055 2.9938 0.24225 4.3232-0.18242 0.87475-2.7657-3.1042-8.4075-3.9764-4.2004 2.0045 1.9172 0.49538 2.9142-1.5612 2.4428-2.6518 0.9454-2.5397-2.212-0.29929-2.8412 1.9508 0.66401 3.7396-2.5956 0.55858-1.9988zm-33.834 0.22065c-0.2009 1.5506 0.35579 1.2876 0.21122 0h-0.18153zm8.8413 0v11.928c1.4298-0.69505 3.4575-2.3403 3.098-4.2613v-7.6671h-3.098zm13.803 0v11.928c0.95814-0.13486 2.4473 0.26134 3.0975-0.18152v-11.747h-3.0975zm-32.93 3.2112c-0.83449 1.6901-2.8559 4.0294 0.22067 3.3481 0.68135-0.32221-0.102-2.6252-0.22067-3.3481zm-2.6458 5.4431c-1.3188 1.5362-4.5186 4.416-0.44981 3.2918 1.4156 0.0297 4.8915-3.3586 2.1051-3.1483-0.55178-0.0478-1.1036-0.0957-1.6553-0.14348zm50.677 0.14986c-0.82964 1.2568-4.0137 4.3956-0.73939 2.5394 0.82268-0.61654 3.2331-2.8792 0.73939-2.5394zm-25.806 0.92294c-1.3365 1.3207-2.2473 3.2245 0 1.6023v-1.6023z"/>
</g>
</g>
</g>
</svg>
