<?xml version="1.0" encoding="UTF-8" standalone="no"?>
<svg
   xmlns:dc="http://purl.org/dc/elements/1.1/"
   xmlns:cc="http://creativecommons.org/ns#"
   xmlns:rdf="http://www.w3.org/1999/02/22-rdf-syntax-ns#"
   xmlns:svg="http://www.w3.org/2000/svg"
   xmlns="http://www.w3.org/2000/svg"
   viewBox="0 0 121.35168 100.05248"
   height="100.05248"
   width="121.35168"
   id="svg1936"
   version="1.1">
  <metadata
     id="metadata1942">
    <rdf:RDF>
      <cc:Work
         rdf:about="">
        <dc:format>image/svg+xml</dc:format>
        <dc:type
           rdf:resource="http://purl.org/dc/dcmitype/StillImage" />
        <dc:title></dc:title>
      </cc:Work>
    </rdf:RDF>
  </metadata>
  <defs
     id="defs1940" />
  <g
     style="display:inline"
     transform="translate(-95.211536,-20.542862)"
     id="layer4">
    <g
       transform="translate(0.90803194,-0.06984755)"
       id="g2542">
      <path
         id="path2558"
         d="m 133.44495,67.651926 3.07334,-16.414435 18.3702,-1.955763 29.26659,-4.749709 -19.55763,29.545984 c 8.77035,17.298969 8.78548,16.661468 -9.15017,21.164142 l -21.72294,-6.146682 z"
         style="fill:#fefefe" />
      <path
         id="path2556"
         d="m 143.88849,119.2919 c -0.825,-0.30518 -3.3,-1.99845 -5.5,-3.76282 -2.2,-1.76438 -5.34183,-3.53892 -6.98184,-3.94343 -3.7836,-0.93322 -25.18717,-21.75339 -27.20659,-26.465011 -0.79773,-1.861212 -1.71712,-6.565391 -2.04311,-10.453732 -0.50109,-5.976998 -1.10861,-7.745589 -3.930578,-11.442573 -2.610216,-3.419569 -3.337883,-5.327718 -3.337883,-8.75287 0,-4.196285 0.483054,-4.904241 11.516341,-16.878145 6.33399,-6.873976 12.50911,-13.193506 13.72251,-14.043398 1.21339,-0.849892 3.94498,-1.545259 6.07021,-1.545259 3.36179,0 4.67622,0.779887 10.11242,6 3.43661,3.3 6.56588,6 6.95394,6 0.38806,0 1.92484,-0.886564 3.41507,-1.970143 4.5613,-3.316621 9.992,-3.559651 15.35342,-0.687084 l 4.64391,2.488138 2.85609,-3.044229 c 7.73375,-8.243186 14.96881,-10.847526 20.11724,-7.241423 1.21339,0.849892 7.38852,7.169422 13.72251,14.043398 10.6923,11.603843 11.51634,12.784805 11.51634,16.504401 0,5.528548 -1.68025,8.249048 -10.42669,16.881914 -7.11133,7.018993 -7.57331,7.738782 -7.57331,11.79966 0,6.178263 -1.51585,8.436142 -13.71132,20.423156 -11.12579,10.93561 -13.9897,12.80221 -19.64234,12.80221 -1.7729,0 -4.98876,0.9 -7.14634,2 -3.74353,1.90856 -9.27927,2.47862 -12.5,1.28724 z"
         style="fill:#fdc63b" />
      <path
         id="path2554"
         d="m 143.88849,119.2919 c -0.825,-0.30518 -3.3,-1.99845 -5.5,-3.76282 -2.2,-1.76438 -5.34183,-3.53892 -6.98184,-3.94343 -3.7836,-0.93322 -25.18717,-21.75339 -27.20659,-26.465011 -0.79773,-1.861212 -1.71712,-6.565391 -2.04311,-10.453732 -0.50109,-5.976998 -1.10861,-7.745589 -3.930578,-11.442573 -2.610216,-3.419569 -3.337883,-5.327718 -3.337883,-8.75287 0,-4.196285 0.483054,-4.904241 11.516341,-16.878145 6.33399,-6.873976 12.50911,-13.193506 13.72251,-14.043398 1.21339,-0.849892 3.94498,-1.545259 6.07021,-1.545259 3.36179,0 4.67622,0.779887 10.11242,6 3.43661,3.3 6.56588,6 6.95394,6 0.38806,0 1.92484,-0.886564 3.41507,-1.970143 4.5613,-3.316621 9.992,-3.559651 15.35342,-0.687084 l 4.64391,2.488138 2.85609,-3.044229 c 7.73375,-8.243186 14.96881,-10.847526 20.11724,-7.241423 1.21339,0.849892 7.38852,7.169422 13.72251,14.043398 10.6923,11.603843 11.51634,12.784805 11.51634,16.504401 0,5.528548 -1.68025,8.249048 -10.42669,16.881914 -7.11133,7.018993 -7.57331,7.738782 -7.57331,11.79966 0,6.178263 -1.51585,8.436142 -13.71132,20.423156 -11.12579,10.93561 -13.9897,12.80221 -19.64234,12.80221 -1.7729,0 -4.98876,0.9 -7.14634,2 -3.74353,1.90856 -9.27927,2.47862 -12.5,1.28724 z m 9.13921,-9.21349 2.36079,-1.92625 -3.25,-3.37135 c -1.7875,-1.85425 -3.25,-3.91244 -3.25,-4.57376 0,-2.143269 2.55533,-1.276526 5.56291,1.88689 3.17906,3.34378 7.44881,5.91072 9.83167,5.91072 0.82164,0 2.75648,-1.09609 4.29965,-2.43576 l 2.80577,-2.43575 -4.95625,-5.057995 c -3.88325,-3.962967 -4.69375,-5.32049 -3.74375,-6.270493 0.95,-0.950003 2.29257,-0.148671 6.20143,3.701406 l 4.98892,4.913912 4.0112,-3.916836 4.01121,-3.916833 -4.64293,-4.713803 c -3.33859,-3.389557 -4.45362,-5.207121 -3.96907,-6.469824 0.56742,-1.478687 1.51505,-0.92527 6.00014,3.504113 l 5.3263,5.260133 2.1364,-2.715993 c 2.56701,-3.263429 2.63286,-4.252151 0.49777,-7.473769 -2.42784,-3.663342 -26.66055,-27.972506 -27.88453,-27.972506 -0.57862,0 -3.28511,2.300622 -6.01443,5.112493 -6.11651,6.3015 -10.01571,8.162803 -14.44121,6.893586 -7.67942,-2.202428 -7.88779,-5.553117 -0.79215,-12.738009 l 5.22905,-5.294821 -8.16709,-8.167087 c -6.87771,-6.877714 -8.47558,-8.020191 -10.12112,-7.236624 -2.84885,1.356555 -22.14335,22.65738 -22.15771,24.461765 -0.0168,2.108363 11.13216,12.968697 13.31333,12.968697 0.97213,0 2.52892,1.326674 3.45952,2.948164 0.93061,1.62149 2.73351,3.4227 4.00645,4.00269 1.27294,0.579989 2.75169,2.308844 3.28612,3.841899 0.59167,1.697259 2.1451,3.230291 3.97207,3.919895 1.90251,0.718118 3.38122,2.224958 4.04115,4.118041 0.64561,1.852004 1.96015,3.216273 3.46232,3.593292 5.45647,1.369488 6.80004,8.305786 2.40243,12.402777 -2.01455,1.87684 -2.0089,1.89234 2.01499,5.52768 4.56125,4.12082 6.7681,4.49395 10.16865,1.71931 z"
         style="fill:#a1a1a1" />
      <path
         id="path2552"
         d="m 144.4822,118.96339 c -1.59846,-0.47815 -4.29846,-2.19293 -6,-3.81063 -1.70154,-1.6177 -4.64438,-3.26793 -6.53964,-3.66718 -2.53803,-0.53464 -6.31801,-3.52594 -14.34683,-11.35341 -5.99549,-5.845128 -11.34028,-11.447016 -11.87732,-12.448636 -2.00488,-3.739301 -3.95192,-13.30109 -3.41436,-16.767672 0.46128,-2.974657 0.11483,-4.001423 -2.02453,-6 -3.414627,-3.189912 -5.391031,-7.137175 -5.391031,-10.766926 0,-3.292168 1.84996,-5.733194 15.581091,-20.559288 13.11089,-14.156397 16.91149,-14.724565 27.40688,-4.09717 l 5.31296,5.379795 3.58167,-2.433805 c 4.61764,-3.137764 10.9119,-3.239302 16.21019,-0.2615 l 3.86509,2.172306 5.77106,-5.502405 c 10.17894,-9.70509 13.87523,-9.045516 26.68997,4.762615 15.5655,16.772129 15.86272,17.204233 15.29541,22.23733 -0.44635,3.960051 -1.41509,5.32397 -9.66676,13.610087 -8.16253,8.196618 -9.09704,9.502437 -8.50072,11.878373 1.27466,5.078635 -0.56773,8.012165 -12.8077,20.393026 -11.94059,12.07802 -15.82498,14.70757 -20.97616,14.19985 -1.24464,-0.12268 -4.28798,0.73447 -6.76298,1.90477 -4.83833,2.28779 -6.86565,2.48872 -11.40629,1.13047 z m 8.5455,-8.88498 2.36079,-1.92625 -3.25,-3.37135 c -1.7875,-1.85425 -3.25,-3.91244 -3.25,-4.57376 0,-2.143269 2.55533,-1.276526 5.56291,1.88689 3.17906,3.34378 7.44881,5.91072 9.83167,5.91072 0.82164,0 2.75648,-1.09609 4.29965,-2.43576 l 2.80577,-2.43575 -4.95625,-5.057995 c -3.88325,-3.962967 -4.69375,-5.32049 -3.74375,-6.270493 0.95,-0.950003 2.29257,-0.148671 6.20143,3.701406 l 4.98892,4.913912 4.0112,-3.916836 4.01121,-3.916833 -4.64293,-4.713803 c -3.33859,-3.389557 -4.45362,-5.207121 -3.96907,-6.469824 0.56742,-1.478687 1.51505,-0.92527 6.00014,3.504113 l 5.3263,5.260133 2.1364,-2.715993 c 2.56701,-3.263429 2.63286,-4.252151 0.49777,-7.473769 -2.42784,-3.663342 -26.66055,-27.972506 -27.88453,-27.972506 -0.57862,0 -3.28511,2.300622 -6.01443,5.112493 -6.11651,6.3015 -10.01571,8.162803 -14.44121,6.893586 -7.67942,-2.202428 -7.88779,-5.553117 -0.79215,-12.738009 l 5.22905,-5.294821 -8.16709,-8.167087 c -6.87771,-6.877714 -8.47558,-8.020191 -10.12112,-7.236624 -2.84885,1.356555 -22.14335,22.65738 -22.15771,24.461765 -0.0168,2.108363 11.13216,12.968697 13.31333,12.968697 0.97213,0 2.52892,1.326674 3.45952,2.948164 0.93061,1.62149 2.73351,3.4227 4.00645,4.00269 1.27294,0.579989 2.75169,2.308844 3.28612,3.841899 0.59167,1.697259 2.1451,3.230291 3.97207,3.919895 1.90251,0.718118 3.38122,2.224958 4.04115,4.118041 0.64561,1.852004 1.96015,3.216273 3.46232,3.593292 5.45647,1.369488 6.80004,8.305786 2.40243,12.402777 -2.01455,1.87684 -2.0089,1.89234 2.01499,5.52768 4.56125,4.12082 6.7681,4.49395 10.16865,1.71931 z"
         style="fill:#eaa303" />
      <path
         id="path2550"
         d="m 144.4822,118.96339 c -1.59846,-0.47815 -4.29846,-2.19293 -6,-3.81063 -1.70154,-1.6177 -4.64438,-3.26793 -6.53964,-3.66718 -2.53803,-0.53464 -6.31801,-3.52594 -14.34683,-11.35341 -5.99549,-5.845128 -11.34028,-11.447016 -11.87732,-12.448636 -2.00488,-3.739301 -3.95192,-13.30109 -3.41436,-16.767672 0.46128,-2.974657 0.11483,-4.001423 -2.02453,-6 -3.414627,-3.189912 -5.391031,-7.137175 -5.391031,-10.766926 0,-3.292168 1.84996,-5.733194 15.581091,-20.559288 13.11089,-14.156397 16.91149,-14.724565 27.40688,-4.09717 l 5.31296,5.379795 3.58167,-2.433805 c 4.61764,-3.137764 10.9119,-3.239302 16.21019,-0.2615 l 3.86509,2.172306 5.77106,-5.502405 c 10.17894,-9.70509 13.87523,-9.045516 26.68997,4.762615 15.5655,16.772129 15.86272,17.204233 15.29541,22.23733 -0.44635,3.960051 -1.41509,5.32397 -9.66676,13.610087 -8.16253,8.196618 -9.09704,9.502437 -8.50072,11.878373 1.27466,5.078635 -0.56773,8.012165 -12.8077,20.393026 -11.94059,12.07802 -15.82498,14.70757 -20.97616,14.19985 -1.24464,-0.12268 -4.28798,0.73447 -6.76298,1.90477 -4.83833,2.28779 -6.86565,2.48872 -11.40629,1.13047 z m 10.51825,-10.06331 c 2.71622,-2.53733 3.64663,-2.90276 5.09218,-2 3.87976,2.42294 6.02264,1.18383 17.44941,-10.0901 11.63958,-11.483891 12.8043,-13.536927 9.65437,-17.017567 -1.61739,-1.787197 -1.22012,-2.343169 9,-12.595071 5.88064,-5.898936 10.6866,-11.392991 10.6799,-12.20901 -0.0145,-1.766883 -19.35002,-23.077048 -22.14787,-24.409742 -1.63223,-0.777476 -3.26508,0.387958 -10.17623,7.263204 l -8.23204,8.189274 -3.91879,-4.013203 c -5.43435,-5.56528 -8.99491,-5.515694 -14.48877,0.201779 l -4.05014,4.214983 -8.35679,-8.313381 c -5.13054,-5.103887 -8.99515,-8.178877 -10.0103,-7.964982 -2.18555,0.460502 -22.60689,22.850401 -22.60689,24.786136 0,0.827347 2.49051,4.021037 5.53446,7.097088 5.50883,5.566914 5.52504,5.60135 3.5,7.433985 -2.13908,1.935845 -2.73418,5.980704 -1.03446,7.031189 0.55,0.339919 1,2.03043 1,3.756691 0,2.64844 1.60909,4.747748 10.30233,13.440983 8.2259,8.225904 10.87388,10.302324 13.13816,10.302324 1.91857,0 4.23949,1.29383 7.17534,4 5.2625,4.85081 8.04818,5.05042 12.49613,0.89542 z"
         style="fill:#5f5f5f" />
      <path
         id="path2548"
         d="m 139.62883,115.63625 c -2.42707,-1.85262 -5.95621,-3.87776 -7.84253,-4.5003 -2.21486,-0.73097 -7.556,-5.29374 -15.0791,-12.881591 -11.15584,-11.251877 -11.71729,-12.020803 -13.25147,-18.148427 -0.88114,-3.519301 -1.33731,-7.810008 -1.01371,-9.534904 0.49427,-2.634691 0.0237,-3.734851 -2.942702,-6.880176 -1.988206,-2.108113 -3.817657,-5.271758 -4.186999,-7.240521 -0.862406,-4.597017 1.279878,-7.721599 15.229811,-22.213117 10.56519,-10.975361 10.95878,-11.266996 15.18291,-11.25 3.94608,0.01588 4.91893,0.576672 10.80429,6.228088 5.55891,5.337941 6.70601,6.037699 8.16345,4.979896 6.452,-4.682856 13.5847,-5.185928 18.98699,-1.33916 l 2.88492,2.05425 4.4119,-4.533018 c 5.4457,-5.595198 8.70799,-7.366852 13.61224,-7.392408 3.5597,-0.01855 4.54588,0.755057 15.61598,12.25 6.49897,6.74839 12.50129,13.561967 13.3385,15.141282 2.79498,5.272517 1.13863,8.898104 -8.72148,19.090387 -8.92835,9.229138 -8.93334,9.237217 -8.93334,14.463663 v 5.229368 l -11.25,11.521108 c -12.39309,12.69175 -14.74917,14.32399 -20.67617,14.32399 -2.26288,0 -5.45913,0.87409 -7.29966,1.99626 -5.29084,3.22583 -11.69178,2.71301 -17.03383,-1.36467 z m 15.37162,-6.73617 c 2.71622,-2.53733 3.64663,-2.90276 5.09218,-2 3.87976,2.42295 6.02264,1.18383 17.44941,-10.0901 11.63958,-11.483891 12.8043,-13.536927 9.65437,-17.017567 -1.61739,-1.787197 -1.22012,-2.343169 9,-12.595071 5.88064,-5.898936 10.6866,-11.392991 10.6799,-12.20901 -0.0145,-1.766883 -19.35002,-23.077048 -22.14787,-24.409742 -1.63223,-0.777476 -3.26508,0.387958 -10.17623,7.263204 l -8.23204,8.189274 -3.91879,-4.013203 c -5.43435,-5.56528 -8.99491,-5.515694 -14.48877,0.201779 l -4.05014,4.214983 -8.35679,-8.313381 c -5.13054,-5.103887 -8.99515,-8.178877 -10.0103,-7.964982 -2.18555,0.460502 -22.60689,22.850401 -22.60689,24.786136 0,0.827347 2.49051,4.021037 5.53446,7.097088 5.50883,5.566914 5.52504,5.60135 3.5,7.433985 -2.13908,1.935845 -2.73418,5.980704 -1.03446,7.031189 0.55,0.339919 1,2.03043 1,3.756691 0,2.64844 1.60909,4.747748 10.30233,13.440983 8.2259,8.225904 10.87388,10.302324 13.13816,10.302324 1.91857,0 4.23949,1.29383 7.17534,4 5.2625,4.85081 8.04818,5.05042 12.49613,0.89542 z"
         style="fill:#996f0e" />
      <path
         id="path2546"
         d="m 139.62883,115.63625 c -2.42707,-1.85262 -5.95621,-3.87776 -7.84253,-4.5003 -2.21486,-0.73097 -7.556,-5.29374 -15.0791,-12.881591 -11.15584,-11.251877 -11.71729,-12.020803 -13.25147,-18.148427 -0.88114,-3.519301 -1.33731,-7.810008 -1.01371,-9.534904 0.49427,-2.634691 0.0237,-3.734851 -2.942702,-6.880176 -1.988206,-2.108113 -3.817657,-5.271758 -4.186999,-7.240521 -0.862406,-4.597017 1.279878,-7.721599 15.229811,-22.213117 10.56519,-10.975361 10.95878,-11.266996 15.18291,-11.25 3.94608,0.01588 4.91893,0.576672 10.80429,6.228088 5.55891,5.337941 6.70601,6.037699 8.16345,4.979896 6.452,-4.682856 13.5847,-5.185928 18.98699,-1.33916 l 2.88492,2.05425 4.4119,-4.533018 c 5.4457,-5.595198 8.70799,-7.366852 13.61224,-7.392408 3.5597,-0.01855 4.54588,0.755057 15.61598,12.25 6.49897,6.74839 12.50129,13.561967 13.3385,15.141282 2.79498,5.272517 1.13863,8.898104 -8.72148,19.090387 -8.92835,9.229138 -8.93334,9.237217 -8.93334,14.463663 v 5.229368 l -11.25,11.521108 c -12.39309,12.69175 -14.74917,14.32399 -20.67617,14.32399 -2.26288,0 -5.45913,0.87409 -7.29966,1.99626 -5.29084,3.22583 -11.69178,2.71301 -17.03383,-1.36467 z m 15.52796,-6.5623 c 2.37649,-2.08659 3.75464,-2.66705 4.7848,-2.01531 0.79579,0.50347 2.74964,0.92229 4.34187,0.93071 2.3363,0.0124 4.9006,-1.95834 13.28799,-10.211972 5.71616,-5.625006 10.6716,-11.337215 11.01208,-12.693799 0.36675,-1.461232 -0.01,-3.562076 -0.92365,-5.154533 l -1.54271,-2.688017 10.38566,-10.350316 c 5.71211,-5.692674 10.38566,-11.148637 10.38566,-12.124361 0,-2.298831 -20.71997,-24.76169 -22.84043,-24.76169 -0.88843,0 -5.10582,3.470022 -9.37198,7.711161 l -7.75665,7.71116 -3.26547,-3.091166 c -6.70276,-6.344982 -10.2575,-6.513944 -15.84126,-0.75296 -1.8241,1.881993 -3.80203,3.421805 -4.3954,3.421805 -0.59338,0 -4.43134,-3.375 -8.52881,-7.5 -4.09747,-4.125 -8.19313,-7.5 -9.10147,-7.5 -2.22265,0 -22.89853,22.2797 -22.89853,24.674764 0,1.041456 2.45901,4.322018 5.46446,7.290138 5.32145,5.255351 5.41056,5.434333 3.40498,6.839096 -1.66974,1.169536 -1.94633,2.128832 -1.46158,5.069258 0.32885,1.994709 0.7513,4.898515 0.93879,6.452902 0.46908,3.888969 19.77491,23.32578 24.09916,24.26266 1.6798,0.36394 4.74299,2.18034 6.80707,4.03645 4.78168,4.29987 8.48015,4.42604 13.01542,0.44402 z"
         style="fill:#6d4f0a" />
      <path
         id="path2544"
         d="m 135.9967,116.47443 c -2.42707,-1.85262 -4.27984,-4.71594 -6.16616,-5.33848 -2.21486,-0.73097 -7.556,-5.29374 -15.0791,-12.881591 -11.15584,-11.251877 -11.1585,-12.020803 -12.69268,-18.148427 -0.88114,-3.519301 -1.75637,-7.810008 -1.43281,-9.534904 0.49333,-2.629709 0.58389,-3.733383 -2.340608,-6.834265 -4.340996,-4.602797 -4.90015,-8.675304 -2.79841,-13.074925 0.86622,-1.81328 4.980098,-8.793062 11.439418,-15.539921 11.50483,-12.016979 14.55053,-14.525794 18.79869,-14.509125 3.94632,0.01548 6.74457,2.136537 12.63028,7.788294 5.55891,5.337941 5.08957,5.105698 6.54701,4.047895 6.45725,-4.686663 15.21713,-5.236029 19.48782,-0.14326 l 2.0886,0.344481 2.40507,-2.639021 c 5.46927,-6.001288 10.81953,-8.402348 15.19516,-8.420508 3.94267,-0.01636 6.01962,1.01239 17.37023,12.808789 6.49189,6.746859 12.07511,13.978275 12.9194,15.55759 2.81406,5.263959 1.43987,10.565209 -8.4292,20.766755 -8.37278,8.654847 -8.79364,8.660769 -8.79364,12.613771 0,2.319712 0.0514,4.830188 -0.55879,6.03153 -1.59257,3.135624 -21.85108,23.345022 -25.06065,25.044172 -1.48519,0.78626 -4.51181,2.54714 -6.72583,2.54714 -2.26288,0 -6.01792,0.87409 -7.85845,1.99626 -5.29084,3.22583 -15.6033,1.59543 -20.94535,-2.48225 z m 16.91928,-5.17388 c 1.35988,-0.93726 2.9662,-2.35526 3.5696,-3.15113 0.88356,-1.16538 1.71803,-1.23056 4.28742,-0.33486 1.94879,0.67935 4.05136,0.77618 5.4029,0.24881 2.9176,-1.13843 23.71259,-22.34925 23.71259,-24.186759 0,-0.784815 -0.72589,-2.463282 -1.61308,-3.729927 -1.5831,-2.260189 -1.41583,-2.503149 9,-13.073063 5.8372,-5.92354 10.61308,-11.259954 10.61308,-11.858697 0,-2.159135 -22.09368,-26.210262 -24.07709,-26.210262 -0.64201,0 -4.8248,3.568835 -9.2951,7.930745 l -8.12781,7.930744 -4.21128,-3.930744 c -5.61624,-5.242122 -8.43055,-5.189397 -13.98512,0.262008 l -4.27211,4.192753 -8.39356,-8.192753 c -4.61646,-4.506014 -8.94304,-8.192753 -9.61464,-8.192753 -0.67159,0 -4.70188,3.7125 -8.9562,8.25 -12.03777,12.839039 -15.06709,16.396808 -15.06709,17.695438 0,0.66167 2.47606,3.798926 5.50235,6.971681 5.44784,5.711482 5.48252,5.7866 3.5,7.58075 -2.30606,2.086961 -2.62383,5.741458 -0.64224,7.386036 0.7955,0.660202 1.15446,2.204603 0.86472,3.720314 -0.42689,2.233101 1.02762,4.099333 10.51668,13.49365 8.98341,8.893719 11.55297,10.902129 13.94819,10.902129 1.98669,0 3.88586,1.00369 5.87321,3.1039 4.71429,4.98203 7.67242,5.80564 11.46458,3.19199 z"
         style="fill:#040302" />
    </g>
  </g>
</svg>
