<?xml version="1.0" encoding="UTF-8" standalone="no"?>
<svg

   xmlns="http://www.w3.org/2000/svg"
   id="svg8"
   
   viewBox="0 0 32.272556 32.26543">


  <g transform="translate(-61.064024,-102.11608)"  id="layer1">
    <path
       id="path815"
       d="m 77.203838,110.0444 c -4.5413,0 -8.20436,3.6631 -8.20436,8.2044 0,4.5413 3.66306,8.2044 8.20436,8.2044 4.541403,0 8.204403,-3.6631 8.204403,-8.2044 0,-4.5413 -3.663,-8.2044 -8.204403,-8.2044 z m 0,13.5383 c -2.9347,0 -5.3339,-2.392 -5.3339,-5.3339 0,-2.9419 2.3921,-5.3339 5.3339,-5.3339 2.941903,0 5.334003,2.392 5.334003,5.3339 0,2.9419 -2.3992,5.3339 -5.334003,5.3339 z m 10.453703,-13.8739 c 0,1.06393 -0.8569,1.91365 -1.9137,1.91365 -1.0639,0 -1.9136,-0.85686 -1.9136,-1.91365 0,-1.05679 0.8569,-1.91364 1.9136,-1.91364 1.0568,0 1.9137,0.85685 1.9137,1.91364 z m 5.4339,1.94221 c -0.1214,-2.56343 -0.7069,-4.8341 -2.5849,-6.7049 -1.8708,-1.8708 -4.1414,-2.45632 -6.7049,-2.58485 -2.6419,-0.14995 -10.560703,-0.14995 -13.202693,0 -2.55629,0.12139 -4.82696,0.70691 -6.7049,2.57771 -1.877941,1.8708 -2.456319,4.14147 -2.584848,6.7049 -0.149949,2.64193 -0.149949,10.56073 0,13.20273 0.121388,2.5634 0.706907,4.8341 2.584848,6.7049 1.87794,1.8708 4.14147,2.4563 6.7049,2.5848 2.64199,0.15 10.560793,0.15 13.202693,0 2.5635,-0.1214 4.8341,-0.7069 6.7049,-2.5848 1.8708,-1.8708 2.4564,-4.1415 2.5849,-6.7049 0.1499,-2.642 0.1499,-10.5536 0,-13.19559 z m -3.4132,16.03039 c -0.5569,1.3995 -1.6351,2.4777 -3.0418,3.0418 -2.1064,0.8354 -7.104803,0.6426 -9.432603,0.6426 -2.3278,0 -7.33322,0.1857 -9.43252,-0.6426 -1.39953,-0.557 -2.47774,-1.6352 -3.04183,-3.0418 -0.83544,-2.1065 -0.64265,-7.1048 -0.64265,-9.4326 0,-2.3278 -0.18565,-7.33326 0.64265,-9.43256 0.55695,-1.39953 1.63516,-2.47774 3.04183,-3.04183 2.10644,-0.83544 7.10472,-0.64265 9.43252,-0.64265 2.3278,0 7.333303,-0.18565 9.432603,0.64265 1.3995,0.55695 2.4777,1.63516 3.0418,3.04183 0.8355,2.10644 0.6427,7.10476 0.6427,9.43256 0,2.3278 0.1928,7.3333 -0.6427,9.4326 z"
       style="fill:none;stroke:#000000;stroke-width:0.26458332px;stroke-linecap:butt;stroke-linejoin:miter;stroke-opacity:1" />
  </g>
</svg>
