<?xml version="1.0" encoding="UTF-8" standalone="no"?>
<svg
   xmlns:dc="http://purl.org/dc/elements/1.1/"
   xmlns:cc="http://creativecommons.org/ns#"
   xmlns:rdf="http://www.w3.org/1999/02/22-rdf-syntax-ns#"
   xmlns:svg="http://www.w3.org/2000/svg"
   xmlns="http://www.w3.org/2000/svg"
   viewBox="0 0 242.40972 243.42991"
   height="243.4299"
   width="242.40973"
   id="svg834"
   version="1.1">
  <metadata
     id="metadata840">
    <rdf:RDF>
      <cc:Work
         rdf:about="">
        <dc:format>image/svg+xml</dc:format>
        <dc:type
           rdf:resource="http://purl.org/dc/dcmitype/StillImage" />
        <dc:title></dc:title>
      </cc:Work>
    </rdf:RDF>
  </metadata>
  <defs
     id="defs838" />
  <g
     style="display:inline"
     transform="translate(-113.71055,62.281403)"
     id="layer2">
    <g
       transform="translate(114.77526,-60.860461)"
       id="g844">
      <g
         id="g893">
        <rect
           style="opacity:1;fill:#aca793;fill-opacity:1;stroke:none;stroke-width:15;stroke-miterlimit:4;stroke-dasharray:none;stroke-opacity:1"
           id="rect862"
           width="87.504425"
           height="18.690266"
           x="53.946903"
           y="90.161087"
           transform="translate(-0.17448172,-0.07062131)" />
        <rect
           style="opacity:1;fill:#e3dedb;fill-opacity:1;stroke:none;stroke-width:15;stroke-miterlimit:4;stroke-dasharray:none;stroke-opacity:1"
           id="rect864"
           width="165.66371"
           height="80.283188"
           x="13.59292"
           y="150.90445"
           transform="translate(-0.17448172,-0.07062131)"
           ry="17.382767"
           rx="36.743515" />
        <rect
           style="opacity:1;fill:#e2e3db;fill-opacity:1;stroke:none;stroke-width:15;stroke-miterlimit:4;stroke-dasharray:none;stroke-opacity:1"
           id="rect868"
           width="7.0202084"
           height="88.432434"
           x="195.17448"
           y="104.94989"
           transform="translate(-0.17448172,-0.07062131)" />
        <g
           id="g877">
          <path
             id="path858"
             d="M 0.00117802,215.75 C 0.00278284,182.71405 1.541818,175.40294 11.403727,161.58271 c 7.343394,-10.29084 19.430256,-19.7061 29.659415,-23.10368 5.879771,-1.95295 5.798704,-1.53701 1.45331,-7.45662 C 37.484325,124.16728 32.2149,112.51307 30.511439,104.47131 28.410266,94.552022 28.454586,62.375029 30.582751,52.697405 36.017611,27.982919 57.807474,5.8556062 81.080889,1.4172252 87.069204,0.27521751 103.1086,0.00212885 164.25,0.00117802 L 240,0 v 74.893011 c 0,67.370139 -0.15889,74.953979 -1.58179,75.499999 -0.86998,0.33385 -5.59498,0.60699 -10.5,0.60699 H 219 v 12.93355 c 0,12.85307 0.0202,12.96608 3.25,18.15942 3.18029,5.11378 3.25751,5.51399 3.60036,18.65941 0.27538,10.55881 0.007,14.33157 -1.25228,17.62996 -2.29972,6.02175 -15.02431,18.82957 -20.26805,20.40063 C 201.25638,239.70386 175.90238,240 100.13398,240 H 0 Z M 108.60228,223.23469 c 1.60318,-1.06855 18.58424,-70.44817 17.5064,-71.52601 -0.49027,-0.49027 -5.85527,-0.73779 -11.92222,-0.55004 -9.80131,0.30331 -11.29747,0.59215 -13.42309,2.59136 -1.315752,1.2375 -2.784266,2.25 -3.26337,2.25 -0.479104,0 -1.947618,-1.0125 -3.263366,-2.25 -2.125622,-1.99921 -3.621786,-2.28805 -13.423091,-2.59136 -6.066953,-0.18775 -11.431951,0.0598 -11.922218,0.55004 -1.07784,1.07784 15.903215,70.45746 17.506395,71.52601 0.606254,0.40408 5.60228,0.73468 11.10228,0.73468 5.5,0 10.49603,-0.3306 11.10228,-0.73468 z M 63.735572,209.2361 C 56.731007,202.21595 51,195.81474 51,195.01119 c 0,-0.80355 3.025431,-4.50979 6.72318,-8.23609 L 64.446361,180 57.72318,173.2249 C 54.025431,169.4986 51,165.80025 51,165.00635 c 0,-0.7939 2.347128,-3.82011 5.21584,-6.7249 6.069534,-6.14588 5.067939,-6.7458 -5.383955,-3.22482 -14.827351,4.99498 -25.787215,15.9685 -30.794743,30.83312 C 18.346168,190.90933 18,194.49119 18,206.96845 V 222 h 29.235572 29.235571 z m 94.429948,9.5139 c -5.50713,-8.95986 -3.80172,-15.82684 6.89285,-27.75466 4.3679,-4.87158 7.94163,-9.36007 7.94163,-9.97442 0,-1.95579 -6.61548,-11.38857 -10.62825,-15.15446 -5.31101,-4.98425 -11.09839,-8.41624 -18.2615,-10.82932 -10.39201,-3.50081 -11.38817,-2.89402 -5.32609,3.24431 2.86871,2.90479 5.21584,5.931 5.21584,6.7249 0,0.7939 -3.02543,4.49225 -6.72318,8.21855 l -6.72318,6.7751 6.72318,6.7751 c 3.69775,3.7263 6.72318,7.43254 6.72318,8.23609 0,0.80355 -5.73101,7.20476 -12.73557,14.22491 L 118.52886,222 h 20.81713 20.81713 z m 43.09468,-70.76247 c 0.41811,-21.71814 0.54473,-40.05003 0.28138,-40.73753 -0.26334,-0.6875 -1.57481,-1.25 -2.91438,-1.25 h -2.43556 l -0.35325,40.25 c -0.355,40.44968 -0.23098,42.07708 3.16161,41.48628 1.28838,-0.22437 1.60725,-5.83216 2.2602,-39.74875 z M 87,102 c 3.047616,-3.047616 2.86672,-11.002436 -0.25,-10.993677 -1.450542,0.0041 -2.857118,1.073232 -3.958678,3.00904 C 79.343281,100.07472 71.246043,100.20031 67.5,94.252538 64.285251,89.148324 61,89.77882 61,95.5 c 0,7.32589 1.933832,8.5 14,8.5 8.666667,0 10.266667,-0.26667 12,-2 z m 45,0 c 3.04762,-3.047616 2.86672,-11.002436 -0.25,-10.993677 -1.45054,0.0041 -2.85712,1.073232 -3.95868,3.00904 C 124.34328,100.07472 116.24604,100.20031 112.5,94.252538 109.28525,89.148324 106,89.77882 106,95.5 c 0,7.32589 1.93383,8.5 14,8.5 8.66667,0 10.26667,-0.26667 12,-2 z"
             style="fill:#fdc63b" />
          <path
             id="path856"
             d="M 0.00117802,215.75 C 0.00278284,182.71405 1.541818,175.40294 11.403727,161.58271 c 7.343394,-10.29084 19.430256,-19.7061 29.659415,-23.10368 5.879771,-1.95295 5.798704,-1.53701 1.45331,-7.45662 C 37.484325,124.16728 32.2149,112.51307 30.511439,104.47131 28.410266,94.552022 28.454586,62.375029 30.582751,52.697405 36.017611,27.982919 57.807474,5.8556062 81.080889,1.4172252 87.069204,0.27521751 103.1086,0.00212885 164.25,0.00117802 L 240,0 v 74.893011 c 0,67.370139 -0.15889,74.953979 -1.58179,75.499999 -0.86998,0.33385 -5.59498,0.60699 -10.5,0.60699 H 219 v 12.93355 c 0,12.85307 0.0202,12.96608 3.25,18.15942 3.18029,5.11378 3.25751,5.51399 3.60036,18.65941 0.27538,10.55881 0.007,14.33157 -1.25228,17.62996 -2.29972,6.02175 -15.02431,18.82957 -20.26805,20.40063 C 201.25638,239.70386 175.90238,240 100.13398,240 H 0 Z M 108.60228,223.23469 c 1.28291,-0.85508 18.61091,-70.08073 17.85015,-71.31166 -0.66736,-1.07981 -57.2375,-1.07981 -57.90486,0 -0.760757,1.23093 16.56724,70.45658 17.85015,71.31166 0.606254,0.40408 5.60228,0.73468 11.10228,0.73468 5.5,0 10.49603,-0.3306 11.10228,-0.73468 z m 90.79062,-1.67591 c 1.40606,-2.46542 4.67635,-5.74655 7.10715,-7.13072 1.46752,-0.83564 1.97603,-2.54099 2.30683,-7.73618 0.70347,-11.04776 -0.32821,-15.21191 -4.35785,-17.58945 L 201,187.06745 v -25.48667 c 0,-15.87313 0.40108,-26.36696 1.06332,-27.82041 0.71373,-1.56647 0.79592,-6.43139 0.25,-14.79706 L 201.5,106.5 l -2.7373,-0.3152 -2.7373,-0.31519 -0.2627,35.55152 -0.2627,35.55153 -2.86431,-1.48633 C 188.31746,173.24554 186.76718,173.63001 182.5,178 c -2.14824,2.2 -4.42649,4 -5.06277,4 -1.3676,0 -16.5504,16.42547 -18.39434,19.89986 -3.34106,6.29529 -0.66312,16.0293 5.56213,20.21774 4.32278,2.90843 33.07386,2.44658 34.78788,-0.55882 z M 63.735572,209.2361 C 56.731007,202.21595 51,195.81474 51,195.01119 c 0,-0.80355 3.025431,-4.50979 6.72318,-8.23609 L 64.446361,180 57.72318,173.2249 C 54.025431,169.4986 51,165.80025 51,165.00635 c 0,-0.7939 2.347128,-3.82011 5.21584,-6.7249 6.069534,-6.14588 5.067939,-6.7458 -5.383955,-3.22482 -14.827351,4.99498 -25.787215,15.9685 -30.794743,30.83312 C 18.346168,190.90933 18,194.49119 18,206.96845 V 222 h 29.235572 29.235571 z m 94.429948,9.5139 c -5.50713,-8.95986 -3.80172,-15.82684 6.89285,-27.75466 4.3679,-4.87158 7.94163,-9.36007 7.94163,-9.97442 0,-1.95579 -6.61548,-11.38857 -10.62825,-15.15446 -5.31101,-4.98425 -11.09839,-8.41624 -18.2615,-10.82932 -10.39201,-3.50081 -11.38817,-2.89402 -5.32609,3.24431 2.86871,2.90479 5.21584,5.931 5.21584,6.7249 0,0.7939 -3.02543,4.49225 -6.72318,8.21855 l -6.72318,6.7751 6.72318,6.7751 c 3.69775,3.7263 6.72318,7.43254 6.72318,8.23609 0,0.80355 -5.73101,7.20476 -12.73557,14.22491 L 118.52886,222 h 20.81713 20.81713 z M 109.98517,139.50384 C 134.30266,133.20255 149,114.88608 149,90.881857 v -7.75514 L 145.75,82.813358 142.5,82.5 l -0.5,-7 -0.5,-7 -19,-0.5 C 101.3218,67.442679 97.484695,66.350684 90.310703,58.839292 86.520374,54.870701 82.023491,45.612882 82.009769,41.75 81.989362,36.005361 69.787745,39.212255 61.987692,47.012308 55.743996,53.256004 53.903583,58.328007 53.145699,71.380002 L 52.5,82.5 49.75244,82.816187 c -3.662269,0.421451 -4.227597,3.066778 -2.865164,13.406898 4.006672,30.408455 33.829634,50.864925 63.097894,43.280755 z M 62,103 c -1.515152,-1.51515 -2,-3.333333 -2,-7.5 0,-5.444444 0.0303,-5.5 3,-5.5 2.895288,0 3,-0.159362 3,-4.565741 0,-7.562667 3.014063,-11.370652 9,-11.370652 5.985937,0 9,3.807985 9,11.370652 C 84,89.840638 84.104712,90 87,90 c 2.969697,0 3,0.05556 3,5.5 0,8.59419 -1.430221,9.5 -15,9.5 -9.666667,0 -11.242424,-0.24242 -13,-2 z m 25,-1 c 3.047616,-3.047616 2.86672,-11.002436 -0.25,-10.993677 -1.450542,0.0041 -2.857118,1.073232 -3.958678,3.00904 C 79.343281,100.07472 71.246043,100.20031 67.5,94.252538 64.285251,89.148324 61,89.77882 61,95.5 c 0,7.32589 1.933832,8.5 14,8.5 8.666667,0 10.266667,-0.26667 12,-2 z m 21.22896,2.33071 C 105.94397,103.41135 104.30033,98.632008 104.76216,94.25 105.1751,90.331859 105.43612,90 108.10504,90 110.87561,90 111,89.803826 111,85.434259 c 0,-7.562667 3.01406,-11.370652 9,-11.370652 5.98594,0 9,3.807985 9,11.370652 C 129,89.840638 129.10471,90 132,90 c 2.9697,0 3,0.05556 3,5.5 0,8.58734 -1.45813,9.51867 -14.75,9.42105 -5.9125,-0.0434 -11.32197,-0.30907 -12.02104,-0.59034 z M 132,102 c 3.04762,-3.047616 2.86672,-11.002436 -0.25,-10.993677 -1.45054,0.0041 -2.85712,1.073232 -3.95868,3.00904 C 124.34328,100.07472 116.24604,100.20031 112.5,94.252538 109.28525,89.148324 106,89.77882 106,95.5 c 0,7.32589 1.93383,8.5 14,8.5 8.66667,0 10.26667,-0.26667 12,-2 z m 62.7298,22.2723 c -0.21648,-2.07476 -0.39722,-0.6223 -0.40166,3.2277 -0.004,3.85 0.17268,5.54754 0.39359,3.7723 0.22091,-1.77523 0.22454,-4.92523 0.008,-7 z"
             style="fill:#a7a7a7" />
          <path
             id="path854"
             d="M 0,216.15996 C 0,181.30676 3.3849012,170.56241 19.453117,154.4119 27.091841,146.73406 41.01505,138 45.615795,138 c 2.357519,0 1.540565,-2.77938 -2.275447,-7.74135 C 32.762146,116.50379 29.655539,103.50659 30.191441,75.247212 30.572015,55.178679 30.684423,54.218098 33.627728,45.88225 40.833865,25.473475 55.7659,10.654001 76.509598,3.3236327 L 84.5,0.5 162.25,0.22063695 240,-0.0587261 V 74.970637 150 h -10.95469 -10.95468 l -0.65839,3.50948 c -0.36211,1.93021 -0.48762,8.12241 -0.27891,13.76044 0.33869,9.14965 0.65831,10.62588 2.97496,13.74053 3.95965,5.32359 4.87171,9.30618 4.87171,21.27275 0,14.84592 -1.00083,17.65474 -9.4799,26.60521 -11.56176,12.20456 0.29042,11.06431 -115.2701,11.08963 L 0,240 Z m 178.89114,7.98791 c 17.77115,-0.59375 19.48377,-0.81004 20.5,-2.58909 1.41873,-2.48367 4.68106,-5.74678 7.16764,-7.16934 1.73185,-0.99078 1.94122,-2.26683 1.94122,-11.83135 0,-11.0114 -0.48694,-12.39046 -4.89181,-13.85422 C 202.20872,188.23882 201.59464,149.6134 202.71465,132.5 203.14659,125.9 203.275,117.125 203,113 l -0.5,-7.5 -3.60581,-0.30177 -3.60582,-0.30177 -0.52437,8.40501 c -0.2884,4.62275 -0.28884,20.32966 -9.7e-4,34.90424 0.52964,26.81518 0.15579,30.11311 -3.05016,26.90716 -2.09291,-2.09291 -5.13699,-1.11304 -9.33174,3.00379 -4.64778,4.56145 -5.53922,4.45395 -8.32354,-1.00378 -5.45074,-10.68433 -15.34257,-19.2113 -27.67834,-23.85933 L 139.5,150.6615 101.57032,150.41525 c -20.861317,-0.13544 -40.565293,0.17821 -43.786608,0.69699 -18.654043,3.00414 -33.622335,15.4375 -39.727504,32.9995 -2.734748,7.86671 -4.271973,36.71843 -2.096057,39.34024 1.341709,1.61667 120.179679,2.12422 162.930989,0.69589 z m -68.90597,-84.64403 c 24.28627,-6.2932 38.86897,-23.9942 39.34859,-47.762697 L 149.5,83.502713 146,83.001357 142.5,82.5 l -0.5,-7 -0.5,-7 -19,-0.5 C 101.3218,67.442679 97.484695,66.350684 90.310703,58.839292 86.520374,54.870701 82.023491,45.612882 82.009769,41.75 81.989362,36.005361 69.787745,39.212255 61.987692,47.012308 55.743996,53.256004 53.903583,58.328007 53.145699,71.380002 L 52.5,82.5 49.75244,82.816187 c -3.662269,0.421451 -4.227597,3.066778 -2.865164,13.406898 4.006672,30.408455 33.829634,50.864925 63.097894,43.280755 z M 69.084029,92.106096 C 62.901396,84.299884 66.257779,74.063607 75,74.063607 c 5.721446,0 9,3.816509 9,10.476747 C 84,89.602824 78.975885,96 75,96 72.903605,96 71.367037,94.988628 69.084029,92.106096 Z m 45.000001,0 C 107.9014,84.299884 111.25778,74.063607 120,74.063607 c 5.72145,0 9,3.816509 9,10.476747 C 129,89.602824 123.97588,96 120,96 c -2.0964,0 -3.63296,-1.011372 -5.91597,-3.893904 z"
             style="fill:#db990c" />
          <path
             id="path852"
             d="M 0,216.15996 C 0,181.30676 3.3849012,170.56241 19.453117,154.4119 27.091841,146.73406 41.01505,138 45.615795,138 c 2.357519,0 1.540565,-2.77938 -2.275447,-7.74135 C 32.762146,116.50379 29.655539,103.50659 30.191441,75.247212 30.572015,55.178679 30.684423,54.218098 33.627728,45.88225 40.833865,25.473475 55.7659,10.654001 76.509598,3.3236327 L 84.5,0.5 162.25,0.22063695 240,-0.0587261 V 74.970637 150 h -10.95469 -10.95468 l -0.65839,3.50948 c -0.36211,1.93021 -0.48762,8.12241 -0.27891,13.76044 0.33869,9.14965 0.65831,10.62588 2.97496,13.74053 3.95965,5.32359 4.87171,9.30618 4.87171,21.27275 0,14.84592 -1.00083,17.65474 -9.4799,26.60521 -11.56176,12.20456 0.29042,11.06431 -115.2701,11.08963 L 0,240 Z m 200.10083,5.76097 c 1.85841,-2.50497 3.14849,-3.8468 6.77417,-7.04593 1.9127,-1.68768 2.125,-2.92402 2.125,-12.375 0,-11.05866 0.11157,-10.74442 -5.42832,-15.28943 -1.3492,-1.10689 -1.56975,-4.64585 -1.55803,-25 0.008,-13.04081 0.28102,-24.70786 0.6078,-25.92678 0.55717,-2.07831 1.22518,-2.23386 10.73634,-2.5 L 223.5,133.5 V 75 16.5 l -53,-0.25994 c -29.15,-0.142967 -53.675,0.01222 -54.5,0.344863 -1.00714,0.406082 0.14285,1.345097 3.5,2.85788 2.75,1.239193 7.14139,3.896505 9.75865,5.905138 L 134.01731,29 h 37.51609 37.5161 l 0.97525,2.5651 c 1.32188,3.476805 1.29866,83.45406 -0.0252,86.93618 -0.79829,2.09968 -1.55612,2.56754 -3.75,2.3151 C 203.57473,120.5086 203.48641,120.29615 203,113 l -0.5,-7.5 -3.75,-0.31037 -3.75,-0.31036 -0.0137,5.81036 c -0.008,3.19571 -0.285,6.82287 -0.61664,8.06037 L 193.76669,121 H 167.76674 141.7668 l 0.52517,-2.25 c 0.28884,-1.2375 1.71874,-5.08615 3.17756,-8.55257 4.1461,-9.8519 5.96315,-24.789351 3.28042,-26.967377 -0.6875,-0.55816 -2.15,-1.179897 -3.25,-1.381638 -1.71412,-0.314371 -2.07147,-1.366077 -2.5,-7.357609 L 142.5,67.5 123.5,67 C 101.75088,66.427655 98.733012,65.579891 91.246805,57.939593 87.202339,53.811878 83,45.22322 83,41.084932 83,34.444728 69.25957,37.898509 60.79935,46.665266 54.905305,52.772868 52.71465,58.864579 52.063283,70.958277 51.517412,81.093271 51.422721,81.434603 49,82.000449 c -2.369556,0.553429 -2.515327,0.990955 -2.793749,8.38532 -0.795449,21.125641 13.280927,41.091441 34.374474,48.756431 11.857724,4.30886 29.244675,2.93924 41.629435,-3.27929 3.40493,-1.70965 6.55179,-1.86291 38.25,-1.86291 H 195 v 20.5 c 0,17.1824 -0.2332,20.5 -1.44098,20.5 -0.79254,0 -1.7191,-0.45 -2.05902,-1 -1.37768,-2.22913 -5.42931,-0.89661 -9.12172,3 -4.7034,4.9635 -5.83352,4.98815 -8.28608,0.18073 -5.48634,-10.75412 -15.34706,-19.2678 -27.71295,-23.92718 L 139.5,150.6615 101.57032,150.41525 c -20.861317,-0.13544 -40.565293,0.17821 -43.786608,0.69699 -18.654043,3.00414 -33.622335,15.4375 -39.727504,32.9995 -2.817642,8.10517 -4.27003,36.72077 -2.002444,39.45304 1.214758,1.4637 9.54577,1.57201 91.793506,1.19344 l 90.4575,-0.41637 z M 69.550891,92.655609 C 64.06023,85.456981 67.328771,74.666667 75,74.666667 c 1.786427,0 4.032307,0.954507 5.50814,2.34098 C 86.078935,82.241138 82.088606,96 75,96 72.888595,96 71.409263,95.092059 69.550891,92.655609 Z m 44.999999,0 C 109.06023,85.456981 112.32877,74.666667 120,74.666667 c 1.78643,0 4.03231,0.954507 5.50814,2.34098 C 131.07894,82.241138 127.08861,96 120,96 c -2.1114,0 -3.59074,-0.907941 -5.44911,-3.344391 z"
             style="fill:#4aa364" />
          <path
             id="path850"
             d="M 0,216.68834 C 0,182.89046 4.0915899,169.94067 19.702777,154.32948 26.484461,147.5478 42.325853,138 46.796118,138 c 2.079308,0 1.359716,-1.69387 -4.168726,-9.81291 C 32.546309,113.38206 30.532284,105.08353 30.568505,78.5 30.589614,63.007447 30.982691,56.950417 32.312629,51.624342 38.227824,27.935429 57.879197,8.5118951 82.439086,2.0790511 90.136488,0.06291056 92.64042,0 165.18834,0 H 240 V 74.967249 149.9345 l -11.25,0.28275 -11.25,0.28275 -0.27934,13.29566 -0.27935,13.29567 3.01799,4.20433 c 3.88564,5.41305 5.42411,13.59558 4.73891,25.20434 -0.69988,11.85735 -1.51625,13.68253 -10.00135,22.36016 -11.98217,12.25406 0.0265,11.09256 -114.94686,11.11788 L 0,240 Z m 200.08348,5.25401 c 1.8756,-2.5261 3.16252,-3.86529 6.79152,-7.06735 3.11673,-2.75005 3.21239,-21.78761 0.125,-24.875 -1.1,-1.1 -2.45,-2 -3,-2 -0.64194,0 -1,-9.65501 -1,-26.96502 V 134.06997 L 213.25,133.78498 223.5,133.5 V 75 16.5 l -53,-0.25994 c -29.15,-0.142967 -53.675,0.01222 -54.5,0.344863 -1.00714,0.406082 0.14285,1.345097 3.5,2.85788 2.75,1.239193 7.14139,3.896505 9.75865,5.905138 L 134.01731,29 l 37.74134,0.236963 37.74135,0.236963 -36,0.264782 c -19.8,0.14563 -36.60008,0.489294 -37.33351,0.763697 -0.97215,0.363717 -0.53333,1.514922 1.61935,4.248255 8.04474,10.214678 11.18602,20.425352 11.20229,36.412857 L 149,82.827033 146.25,82.09633 C 143.65329,81.406357 143.47213,80.979172 143,74.432813 L 142.5,67.5 123.5,67 C 101.75088,66.427655 98.733012,65.579891 91.246805,57.939593 87.202339,53.811878 83,45.22322 83,41.084932 83,34.444728 69.25957,37.898509 60.79935,46.665266 54.905305,52.772868 52.71465,58.864579 52.063283,70.958277 51.517412,81.093271 51.422721,81.434603 49,82.000449 c -2.369556,0.553429 -2.515327,0.990955 -2.793749,8.38532 -0.795449,21.125641 13.280927,41.091441 34.374474,48.756431 11.857724,4.30886 29.244675,2.93924 41.629435,-3.27929 3.40493,-1.70965 6.55179,-1.86291 38.25,-1.86291 H 195 v 20.5 c 0,17.1824 -0.2332,20.5 -1.44098,20.5 -0.79254,0 -1.7191,-0.45 -2.05902,-1 -1.37768,-2.22913 -5.42931,-0.89661 -9.12172,3 -4.86589,5.13497 -5.32162,5.06063 -8.70793,-1.42035 -5.53439,-10.59215 -18.08156,-20.37487 -30.71306,-23.94622 -7.64325,-2.161 -82.333099,-2.2075 -90.591734,-0.0564 -16.845439,4.38768 -30.695149,18.07644 -35.770177,35.35447 -1.683139,5.73028 -2.363814,35.93623 -0.845379,37.51494 0.4125,0.42887 41.648265,0.59043 91.63503,0.35902 l 90.88504,-0.42076 z M 154.19097,120.25323 c 6.98004,-0.17166 18.68004,-0.17212 26,-0.001 7.31997,0.17109 1.60903,0.31154 -12.69097,0.31211 -14.3,5.7e-4 -20.28906,-0.13941 -13.30903,-0.31107 z m 51.07806,0.0538 c 0.97297,-0.25354 2.32297,-0.23687 3,0.037 0.67703,0.27393 -0.11903,0.48137 -1.76903,0.46099 -1.65,-0.0204 -2.20394,-0.2445 -1.23097,-0.49804 z M 144.3078,117.25 c 0.29759,-0.9625 1.80089,-4.675 3.34068,-8.25 2.68805,-6.24099 2.81438,-7.27422 3.17035,-25.929518 C 151.30889,57.388028 149.52629,48.892531 141.0676,36.598259 139.38042,34.146024 138,31.877472 138,31.557032 c 0,-0.320439 15.8625,-0.464361 35.25,-0.319825 L 208.5,31.5 V 75 118.5 H 206 c -2.35691,0 -2.51647,-0.34341 -2.78779,-6 C 202.62717,100.30275 194,100.83789 194,113.07143 V 119 h -25.11663 c -23.46006,0 -25.08095,-0.11542 -24.57557,-1.75 z M 210.45804,75 c 0,-23.375 0.13089,-32.9375 0.29087,-21.25 0.15998,11.6875 0.15998,30.8125 0,42.5 -0.15998,11.6875 -0.29087,2.125 -0.29087,-21.25 z M 70.557026,94.063013 C 69.592904,92.997671 69.101682,91.644492 69.465421,91.05595 69.82916,90.467409 69.423242,89.715908 68.563382,89.385948 65.834591,88.338813 66.471704,79.844936 69.49186,77.007647 75.204324,71.641066 83,75.715273 83,84.067325 c 0,3.356931 -0.451176,4.89183 -1.563382,5.318623 -0.85986,0.32996 -1.265778,1.081461 -0.902039,1.670002 C 81.584617,92.754947 77.951966,96 75,96 73.520486,96 71.521148,95.128356 70.557026,94.063013 Z m 45.000004,0 c -0.96413,-1.065342 -1.45535,-2.418521 -1.09161,-3.007063 0.36374,-0.588541 -0.0422,-1.340042 -0.90204,-1.670002 -2.72879,-1.047135 -2.09168,-9.541012 0.92848,-12.378301 C 120.20432,71.641066 128,75.715273 128,84.067325 c 0,3.356931 -0.45118,4.89183 -1.56338,5.318623 -0.85986,0.32996 -1.26578,1.081461 -0.90204,1.670002 C 126.58462,92.754947 122.95197,96 120,96 c -1.47951,0 -3.47885,-0.871644 -4.44297,-1.936987 z"
             style="fill:#04b094" />
          <path
             id="path848"
             d="M 0,216.68834 C 0,182.89046 4.0915899,169.94067 19.702777,154.32948 26.484461,147.5478 42.325853,138 46.796118,138 c 2.079308,0 1.359716,-1.69387 -4.168726,-9.81291 C 32.546309,113.38206 30.532284,105.08353 30.568505,78.5 30.589614,63.007447 30.982691,56.950417 32.312629,51.624342 38.227824,27.935429 57.879197,8.5118951 82.439086,2.0790511 90.136488,0.06291056 92.64042,0 165.18834,0 H 240 V 74.967249 149.9345 L 228.48022,150.26221 217.5,150.5 l -0.27934,13.29566 -0.27935,13.29567 3.01799,4.20433 c 3.88564,5.41305 5.42411,13.59558 4.73891,25.20434 -0.69988,11.85735 -1.51625,13.68253 -10.00135,22.36016 -11.98217,12.25406 0.0265,11.09256 -114.94686,11.11788 L 0,240 Z m 200.08348,5.25401 c 1.8756,-2.5261 3.16252,-3.86529 6.79152,-7.06735 3.11673,-2.75005 3.21239,-21.78761 0.125,-24.875 -1.1,-1.1 -2.45,-2 -3,-2 -0.64194,0 -1,-9.65501 -1,-26.96502 V 134.06997 L 213.25,133.78498 223.5,133.5 V 75 16.5 l -53,-0.25994 c -29.15,-0.142967 -53.675,0.01222 -54.5,0.344863 -1.00714,0.406082 0.14285,1.345097 3.5,2.85788 2.75,1.239193 7.14139,3.896505 9.75865,5.905138 L 134.01731,29 l 37.74134,0.236963 37.74135,0.236963 -36,0.264782 c -19.8,0.14563 -36.60008,0.489294 -37.33351,0.763697 -0.97215,0.363717 -0.53333,1.514922 1.61935,4.248255 8.04474,10.214678 11.18602,20.425352 11.20229,36.412857 L 149,82.827033 146.25,82.09633 C 143.65329,81.406357 143.47213,80.979172 143,74.432813 L 142.5,67.5 123.5,67 C 101.75088,66.427655 98.733012,65.579891 91.246805,57.939593 87.202339,53.811878 83,45.22322 83,41.084932 83,34.444728 69.25957,37.898509 60.79935,46.665266 54.905305,52.772868 52.71465,58.864579 52.063283,70.958277 51.517412,81.093271 51.422721,81.434603 49,82.000449 c -2.369556,0.553429 -2.515327,0.990955 -2.793749,8.38532 -0.795449,21.125641 13.280927,41.091441 34.374474,48.756431 11.857724,4.30886 29.244675,2.93924 41.629435,-3.27929 3.40493,-1.70965 6.55179,-1.86291 38.25,-1.86291 H 195 v 20.5 c 0,17.1824 -0.2332,20.5 -1.44098,20.5 -0.79254,0 -1.7191,-0.45 -2.05902,-1 -1.37768,-2.22913 -5.42931,-0.89661 -9.12172,3 -4.86589,5.13497 -5.32162,5.06063 -8.70793,-1.42035 -5.53439,-10.59215 -18.08156,-20.37487 -30.71306,-23.94622 -7.64325,-2.161 -82.333099,-2.2075 -90.591734,-0.0564 -16.845439,4.38768 -30.695149,18.07644 -35.770177,35.35447 -1.683139,5.73028 -2.363814,35.93623 -0.845379,37.51494 0.4125,0.42887 41.648265,0.59043 91.63503,0.35902 l 90.88504,-0.42076 z M 154.19097,120.25323 c 6.98004,-0.17166 18.68004,-0.17212 26,-0.001 7.31997,0.17109 1.60903,0.31154 -12.69097,0.31211 -14.3,5.7e-4 -20.28906,-0.13941 -13.30903,-0.31107 z m 51.07806,0.0538 c 0.97297,-0.25354 2.32297,-0.23687 3,0.037 0.67703,0.27393 -0.11903,0.48137 -1.76903,0.46099 -1.65,-0.0204 -2.20394,-0.2445 -1.23097,-0.49804 z M 210.45804,75 c 0,-23.375 0.13089,-32.9375 0.29087,-21.25 0.15998,11.6875 0.15998,30.8125 0,42.5 -0.15998,11.6875 -0.29087,2.125 -0.29087,-21.25 z M 68.25,89.337719 C 65.827179,88.36009 66.707079,79.623813 69.49186,77.007647 75.204324,71.641066 83,75.715273 83,84.067325 83,87.447669 82.551361,88.958181 81.418213,89.393011 79.557647,90.106977 70.057564,90.067087 68.25,89.337719 Z m 45,0 C 110.82718,88.36009 111.70708,79.623813 114.49186,77.007647 120.20432,71.641066 128,75.715273 128,84.067325 c 0,3.380344 -0.44864,4.890856 -1.58179,5.325686 -1.86056,0.713966 -11.36065,0.674076 -13.16821,-0.05529 z"
             style="fill:#905926" />
          <path
             id="path846"
             d="m -0.72747174,214.4252 c 0.2137276,-16.393 0.73092544,-26.38006 1.41215796,-27.26868 0.59120438,-0.7712 0.56843318,-5.23882 1.26832508,-7.71382 4.9080401,-17.35611 18.8575417,-33.1295 36.8851677,-40.45648 8.020101,-3.25961 8.435371,-0.95771 3.06825,-8.31964 C 30.769131,115.38988 28.021374,105.74179 28.521635,76.473767 28.862152,56.551603 28.664012,53.624825 31.309828,46.044535 38.526796,25.367844 53.114374,6.0222537 75.920877,2.2805989 l 12.545044,-3.7015409 75.135139,1.02725105 76.6507,-0.79237485 1.09325,75.8656488 -0.68923,76.358437 -3.41338,0.12659 -8.18776,0.4039 -9.2472,-0.14724 -0.13743,12.33134 0.335,13.61937 4.10236,7.52514 c 2.71182,4.89548 2.86523,2.71987 3.20477,15.22765 0.46064,16.96922 -2.03142,20.45152 -10.36992,28.9972 -3.69857,3.79108 -5.92287,6.28488 -7.18936,7.35686 -1.2665,1.07198 -4.75944,2.59808 -7.38404,3.04599 -14.80228,2.52613 -103.192055,2.48409 -103.192055,2.48409 L -1.0647126,240.29172 Z M 199.00827,224.49572 c 1.56749,-0.81058 3.13427,-2.36946 3.48171,-3.46416 0.34745,-1.09471 1.916,-2.74902 3.48566,-3.67624 C 210.02217,214.96497 211,212.07387 211,202.5 c 0,-9.57117 -1.18972,-13.02963 -5.19469,-15.10068 L 203,185.94864 v -24.27432 c 0,-17.54669 0.33258,-24.6069 1.2,-25.47432 0.7681,-0.7681 4.68519,-1.2 10.88337,-1.2 9.19668,0 9.71367,-0.11308 10.28634,-2.25 0.78739,-2.93813 0.78739,-112.56187 0,-115.5 L 224.76674,15 159.13337,15.017364 C 106.06948,15.031402 92.207045,15.308719 86.748649,16.465418 66.32867,20.79265 50.711898,36.477623 46.44413,56.945954 c -2.531391,12.140615 -2.300338,42.21177 0.380136,49.474136 11.785921,31.93231 42.766568,44.6498 75.428064,30.96309 5.73233,-2.40213 5.86613,-2.40959 38.5,-2.14684 L 193.5,135.5 l 0.27173,18.65776 0.27172,18.65776 -4.09033,-0.54863 c -3.78134,-0.50719 -4.41777,-0.22728 -8.42467,3.70519 l -4.33433,4.25382 -1.75721,-2.86295 c -7.10799,-11.58078 -13.38975,-17.79596 -22.77502,-22.53363 -10.41818,-5.25908 -15.51605,-5.79459 -55.16189,-5.79459 -27.08958,0 -37.639022,0.34741 -42.621999,1.40362 -19.497979,4.13288 -35.306775,19.94167 -39.439647,39.43965 -2.011882,9.49161 -1.942053,32.47544 0.104885,34.52238 2.284366,2.28437 179.054281,2.37623 183.465031,0.0953 z M 68.70896,89.375627 c -2.544957,-2.544957 0.367424,-12.10571 3.962479,-13.008012 5.89323,-1.479106 9.824887,2.715946 9.150764,9.763804 L 81.5,89.5 75.45896,89.792294 c -3.322572,0.160761 -6.360072,-0.02674 -6.75,-0.416667 z m 45,0 c -2.54496,-2.544957 0.36742,-12.10571 3.96248,-13.008012 5.89323,-1.479106 9.82489,2.715946 9.15076,9.763804 L 126.5,89.5 l -6.04104,0.292294 c -3.32257,0.160761 -6.36007,-0.02674 -6.75,-0.416667 z"
             style="fill:#0d0b08" />
        </g>
      </g>
    </g>
  </g>
</svg>
