<?xml version="1.0" encoding="UTF-8" standalone="no"?>
<svg
   xmlns:dc="http://purl.org/dc/elements/1.1/"
   xmlns:cc="http://creativecommons.org/ns#"
   xmlns:rdf="http://www.w3.org/1999/02/22-rdf-syntax-ns#"
   xmlns:svg="http://www.w3.org/2000/svg"
   xmlns="http://www.w3.org/2000/svg"
   id="svg8"
   version="1.1"
   viewBox="0 0 39.840301 32.264583"
   height="32.264584mm"
   width="39.840302mm">
  <defs
     id="defs2" />
  <metadata
     id="metadata5">
    <rdf:RDF>
      <cc:Work
         rdf:about="">
        <dc:format>image/svg+xml</dc:format>
        <dc:type
           rdf:resource="http://purl.org/dc/dcmitype/StillImage" />
        <dc:title></dc:title>
      </cc:Work>
    </rdf:RDF>
  </metadata>
  <g
     transform="translate(0.07157455,0.13229166)"
     id="layer1">
    <path
       id="path815"
       d="M 35.35,7.97497 C 35.375,8.32495 35.375,8.67501 35.375,9.025 35.375,19.6999 27.2501,32 12.4,32 7.82499,32 3.57502,30.6749 0,28.375 c 0.650024,0.075 1.27496,0.1 1.94999,0.1 3.77495,0 7.25,-1.275 10.02501,-3.45 -3.55001,-0.075 -6.52502,-2.4 -7.55004,-5.6 0.50005,0.0749 1.00001,0.125 1.52506,0.125 0.72498,0 1.45003,-0.1001 2.12499,-0.275 -3.69999,-0.7501 -6.47508,-4 -6.47508,-7.925 v -0.1 C 2.67489,11.85 3.925,12.225 5.2499,12.275 3.0749,10.8249 1.64995,8.34996 1.64995,5.54994 c 0,-1.49997 0.39993,-2.87497 1.09997,-4.07498 3.97502,4.9 9.95008,8.09995 16.64998,8.45 -0.125,-0.6 -0.2,-1.22494 -0.2,-1.84995 0,-4.45005 3.6,-8.07501 8.075,-8.07501 2.325,0 4.425,0.974998 5.9,2.55 1.825,-0.34998 3.575,-1.02502 5.125,-1.949996 -0.6,1.875046 -1.875,3.450046 -3.55,4.449976 1.625,-0.17492 3.2,-0.62502 4.65,-1.24995 C 38.3001,5.39996 36.925,6.8249 35.35,7.97497 Z"
       style="fill:none;stroke:#000000;stroke-width:0.26458332px;stroke-linecap:butt;stroke-linejoin:miter;stroke-opacity:1" />
  </g>
</svg>
