<?xml version="1.0" encoding="UTF-8" standalone="no"?>
<svg
   xmlns:dc="http://purl.org/dc/elements/1.1/"
   xmlns:cc="http://creativecommons.org/ns#"
   xmlns:rdf="http://www.w3.org/1999/02/22-rdf-syntax-ns#"
   xmlns:svg="http://www.w3.org/2000/svg"
   xmlns="http://www.w3.org/2000/svg"
   id="svg8"
   version="1.1"
   viewBox="0 0 45.505981 32.264583"
   height="32.264584mm"
   width="45.505981mm">
  <defs
     id="defs2" />
  <metadata
     id="metadata5">
    <rdf:RDF>
      <cc:Work
         rdf:about="">
        <dc:format>image/svg+xml</dc:format>
        <dc:type
           rdf:resource="http://purl.org/dc/dcmitype/StillImage" />
        <dc:title></dc:title>
      </cc:Work>
    </rdf:RDF>
  </metadata>
  <g
     transform="translate(0.13229166,0.13229166)"
     id="layer1">
    <path
       id="path815"
       d="M 44.296,5.00692 C 43.7757,3.03608 42.2427,1.48392 40.2962,0.957167 36.7681,0 22.6207,0 22.6207,0 22.6207,0 8.47339,0 4.94518,0.957167 2.9987,1.484 1.46568,3.03608 0.945362,5.00692 0,8.57917 0,16.0323 0,16.0323 c 0,0 0,7.4532 0.945362,11.0255 C 1.46568,29.0286 2.9987,30.5161 4.94518,31.0428 8.47339,32 22.6207,32 22.6207,32 c 0,0 14.1473,0 17.6755,-0.9572 1.9465,-0.5267 3.4795,-2.0142 3.9998,-3.985 0.9454,-3.5723 0.9454,-11.0255 0.9454,-11.0255 0,0 0,-7.45313 -0.9454,-11.02538 z M 17.9937,22.7993 V 9.26542 l 11.8244,6.76708 z"
       style="fill:none;stroke:#000000;stroke-width:0.26458332px;stroke-linecap:butt;stroke-linejoin:miter;stroke-opacity:1" />
  </g>
</svg>
