<?xml version="1.0" encoding="UTF-8" standalone="no"?>
<svg
   xmlns:dc="http://purl.org/dc/elements/1.1/"
   xmlns:cc="http://creativecommons.org/ns#"
   xmlns:rdf="http://www.w3.org/1999/02/22-rdf-syntax-ns#"
   xmlns:svg="http://www.w3.org/2000/svg"
   xmlns="http://www.w3.org/2000/svg"
   xmlns:xlink="http://www.w3.org/1999/xlink"
   xmlns:sodipodi="http://sodipodi.sourceforge.net/DTD/sodipodi-0.dtd"
   xmlns:inkscape="http://www.inkscape.org/namespaces/inkscape"
   height="51.839249"
   width="46.9436"
   id="svg857"
   version="1.1"
   viewBox="0 0 46.943601 51.839248"
   sodipodi:docname="isotipoSWMejoradoSmall.svg"
   inkscape:export-filename="C:\Users\JOMCHOME\Documents\CodeLab\ReactJs\my-ssr-app\src\assets\isotipoSWMejoradosmall.png"
   inkscape:export-xdpi="29.630058"
   inkscape:export-ydpi="29.630058"
   inkscape:version="0.92.3 (2405546, 2018-03-11)">
  <sodipodi:namedview
     pagecolor="#ffffff"
     bordercolor="#666666"
     borderopacity="1"
     objecttolerance="10"
     gridtolerance="10"
     guidetolerance="10"
     inkscape:pageopacity="0"
     inkscape:pageshadow="2"
     inkscape:window-width="1366"
     inkscape:window-height="715"
     id="namedview23"
     showgrid="false"
     inkscape:zoom="4.5525351"
     inkscape:cx="-6.2426939"
     inkscape:cy="25.919624"
     inkscape:window-x="-8"
     inkscape:window-y="-8"
     inkscape:window-maximized="1"
     inkscape:current-layer="g938" />
  <metadata
     id="metadata24">
    <rdf:RDF>
      <cc:Work
         rdf:about="">
        <dc:format>image/svg+xml</dc:format>
        <dc:type
           rdf:resource="http://purl.org/dc/dcmitype/StillImage" />
        <dc:title></dc:title>
      </cc:Work>
    </rdf:RDF>
  </metadata>
  <defs
     id="defs845">
    <linearGradient
       id="linearGradient867">
      <stop
         id="stop863"
         offset="0"
         style="stop-color:#000000;stop-opacity:1" />
      <stop
         id="stop865"
         offset="1"
         style="stop-color:#000000;stop-opacity:0" />
    </linearGradient>
    <linearGradient
       id="a">
      <stop
         id="stop839"
         offset="0" />
      <stop
         id="stop841"
         stop-opacity="0"
         offset="1" />
    </linearGradient>
    <radialGradient
       r="21.907738"
       fy="74.29351"
       fx="53.454414"
       cy="74.29351"
       cx="53.454414"
       gradientTransform="matrix(1.04857,0,0,1.1831225,-55.039409,-65.683314)"
       gradientUnits="userSpaceOnUse"
       id="b"
       xlink:href="#a" />
    <radialGradient
       gradientUnits="userSpaceOnUse"
       gradientTransform="matrix(1,0,0,1.1283238,0,-3.3261048)"
       r="22.971798"
       fy="25.919626"
       fx="22.971928"
       cy="25.919626"
       cx="22.971928"
       id="radialGradient871"
       xlinkHref="#linearGradient867" />
    <radialGradient
       r="22.971798"
       fy="25.919626"
       fx="22.971928"
       cy="25.919626"
       cx="22.971928"
       gradientTransform="matrix(1,0,0,1.1283238,0.8667467,-3.4138026)"
       gradientUnits="userSpaceOnUse"
       id="radialGradient897"
       xlink:href="#linearGradient867" />
    <radialGradient
       r="22.971798"
       fy="25.919626"
       fx="22.971928"
       cy="25.919626"
       cx="22.971928"
       gradientTransform="matrix(1,0,0,1.1283238,0.8667467,-3.4138026)"
       gradientUnits="userSpaceOnUse"
       id="radialGradient921"
       xlink:href="#linearGradient867" />
  </defs>
  <g
     id="g938">
    <g
       id="g851"
       style="stroke-width:0.26458299"
       transform="translate(-0.86687669,0.08769614)">
      <g
         id="g919">
        <path
           style="fill:#0387b7;fill-opacity:1;fill-rule:nonzero;stroke:url(#radialGradient921);stroke-width:0.27743378"
           id="path849"
           d="m 1.0800757,0.05342629 10.7072803,-1e-6 H 23.838141 L 37.02966,0.16034689 46.596207,0.05342419 23.83814,51.409167 1.2972308,0.54345737 Z"
           inkscape:connector-curvature="0" />
        <path
           id="path899"
           d="M 46.596207,0.05342419 V 36.968813 L 23.83814,51.409168 Z"
           style="fill:#024259;fill-opacity:1;stroke:none;stroke-width:0.26458332;stroke-linecap:butt;stroke-linejoin:miter;stroke-miterlimit:20;stroke-dasharray:none;stroke-opacity:1"
           inkscape:connector-curvature="0" />
        <path
           id="path899-1"
           d="M 1.0800757,0.05342629 V 36.968815 L 23.838143,51.409172 Z"
           style="fill:#024259;fill-opacity:1;stroke:none;stroke-width:0.26458332;stroke-linecap:butt;stroke-linejoin:miter;stroke-miterlimit:20;stroke-dasharray:none;stroke-opacity:1"
           inkscape:connector-curvature="0" />
      </g>
    </g>
    <path
       style="fill:#415d68"
       d="m 28.01606,16.730477 c -2.148665,-1.950331 -3.108405,-2.422405 -4.476763,-2.589173 -0.917832,-0.149319 -2.342609,-0.04194 -2.994979,1.210213 -0.977316,1.875847 2.183349,2.999401 2.921211,3.372964 1.703649,0.862519 4.275152,2.177663 5.602905,3.167639 1.539541,1.147886 2.63728,2.072123 3.346524,4.151224 0.742379,2.176234 1.00569,3.850363 -0.06398,6.335524 -2.271585,5.27755 -9.136441,6.50828 -14.190482,4.81443 -2.400174,-1.0655 -3.813171,-2.19352 -5.479025,-4.10927 l 4.355658,-4.696006 c 0.663208,0.793666 6.106311,5.348616 8.806016,1.968157 2.539248,-3.17954 -5.222147,-5.029611 -8.88244,-8.010048 -2.264462,-2.031297 -3.182219,-4.161434 -3.176812,-6.57098 0.0045,-1.999975 0.857917,-4.085746 2.741838,-5.677666 1.17237,-0.9906579 2.303914,-2.0230049 6.178126,-2.3307639 1.039947,-0.08261 3.130113,0.06177 5.536031,1.217592 2.699739,1.2969699 3.453834,2.6524059 4.11095,3.4949069 -0.49955,0.554629 -3.423682,3.440741 -4.334778,4.251257 z"
       id="path853"
       inkscape:connector-curvature="0" />
    <path
       d="m 27.324045,15.832638 c -2.148665,-1.950331 -3.108405,-2.422405 -4.476763,-2.589173 -0.917832,-0.149319 -2.342609,-0.04194 -2.994979,1.210213 -0.977316,1.875847 2.183349,2.999401 2.921211,3.372964 1.703649,0.862519 4.275152,2.177663 5.602905,3.167639 1.539541,1.147886 2.63728,2.072123 3.346524,4.151224 0.742379,2.176234 1.00569,3.850363 -0.06398,6.335523 -2.271585,5.27755 -9.136441,6.50828 -14.190482,4.81443 -2.400174,-1.0655 -3.813171,-2.19352 -5.479025,-4.10927 l 4.355658,-4.696005 c 0.663208,0.793666 6.106311,5.348615 8.806016,1.968157 2.539248,-3.17954 -5.222147,-5.029611 -8.88244,-8.010048 -2.264462,-2.031297 -3.182219,-4.161434 -3.176812,-6.57098 0.0045,-1.999975 0.857917,-4.085746 2.741838,-5.6776659 1.17237,-0.990658 2.303914,-2.023005 6.178126,-2.330764 1.039947,-0.08261 3.130113,0.06177 5.536031,1.217592 2.699739,1.29697 3.453834,2.6524059 4.11095,3.4949069 -0.49955,0.554629 -3.423682,3.440741 -4.334778,4.251257 z"
       id="path855"
       style="fill:#ecf0f2;stroke:none;stroke-width:0.26458332;stroke-miterlimit:4;stroke-dasharray:none;stroke-opacity:1"
       inkscape:connector-curvature="0" />
  </g>
</svg>
