<?xml version="1.0" encoding="UTF-8" standalone="no"?>
<svg
   xmlns:dc="http://purl.org/dc/elements/1.1/"
   xmlns:cc="http://creativecommons.org/ns#"
   xmlns:rdf="http://www.w3.org/1999/02/22-rdf-syntax-ns#"
   xmlns:svg="http://www.w3.org/2000/svg"
   xmlns="http://www.w3.org/2000/svg"
   xmlns:sodipodi="http://sodipodi.sourceforge.net/DTD/sodipodi-0.dtd"
   xmlns:inkscape="http://www.inkscape.org/namespaces/inkscape"
   id="svg153"
   version="1.1"
   viewBox="0 0 193.86 65.352226"
   style="fill:#024259"
   sodipodi:docname="splash para cambios.svg"
   inkscape:version="0.92.3 (2405546, 2018-03-11)">
  <metadata
     id="metadata19">
    <rdf:RDF>
      <cc:Work
         rdf:about="">
        <dc:format>image/svg+xml</dc:format>
        <dc:type
           rdf:resource="http://purl.org/dc/dcmitype/StillImage" />
        <dc:title></dc:title>
      </cc:Work>
    </rdf:RDF>
  </metadata>
  <defs
     id="defs17" />
  <sodipodi:namedview
     pagecolor="#ffffff"
     bordercolor="#666666"
     borderopacity="1"
     objecttolerance="10"
     gridtolerance="10"
     guidetolerance="10"
     inkscape:pageopacity="0"
     inkscape:pageshadow="2"
     inkscape:window-width="1366"
     inkscape:window-height="715"
     id="namedview15"
     showgrid="false"
     inkscape:zoom="6.246776"
     inkscape:cx="63.066058"
     inkscape:cy="19.869507"
     inkscape:window-x="-8"
     inkscape:window-y="-8"
     inkscape:window-maximized="1"
     inkscape:current-layer="svg153" />
  <g
     style="stroke:orange"
     transform="translate(58.534759,-115.69498)"
     id="layer1">
    <g
       transform="matrix(1.0148725,0,0,0.99585955,25.282566,-22.121082)"
       id="g187">
      <rect
         style="fill-opacity:1;stroke-width:0.24434888"
         id="rect183"
         width="110.59809"
         height="56.167286"
         x="-82.58902"
         y="147.79315" />
    </g>
    <path
       id="path1013"
       d="m -9.3994294,153.06704 c 0.0013,-15.38882 0.07716,-28.60292 0.168661,-29.36466 0.160068,-1.33257 0.192514,-1.37858 0.857596,-1.21603 0.380179,0.0929 0.750766,0.25134 0.823526,0.35205 0.07276,0.10071 0.488287,0.27041 0.923392,0.37711 0.435105,0.10671 0.877481,0.3334 0.983058,0.50376 0.268389,0.43309 5.29512296,0.40087 5.44036896,-0.0349 0.115828,-0.34748 2.17818104,-0.44708 2.17818104,-0.10519 0,0.11641 0.714375,0.3592 1.5875,0.53954 0.873125,0.18034 1.5875,0.44229 1.5875,0.58211 0,0.13981 0.297656,0.25421 0.661458,0.25421 0.363802,0 0.661459,-0.0966 0.661459,-0.21457 0,-0.11801 0.588474,-0.36538 1.30772,-0.54972 0.719246,-0.18434 1.354557,-0.47474 1.411802,-0.64533 0.07366,-0.21951 1.0163014,-0.28848 3.2247294,-0.23596 l 3.120646,0.0742 0.917968,0.91797 c 0.504882,0.50488 1.144187,0.91797 1.420677,0.91797 0.276489,0 0.502708,0.10089 0.502708,0.22419 0,0.12331 1.431523,0.29617 3.181162,0.38414 2.511851,0.12629 3.277283,0.25607 3.638021,0.61681 0.432758,0.43276 0.460891,0.42995 0.533305,-0.0534 0.225615,-1.50594 0.338735,-1.7009 0.986927,-1.7009 0.570754,0 0.656418,0.11798 0.656418,0.904 0,0.49719 -0.148828,0.97476 -0.330729,1.06126 -0.181901,0.0865 -0.08909,0.11444 0.206251,0.0621 0.512461,-0.0909 1.177673,0.36056 1.187384,0.80577 0.0068,0.31157 1.215067,1.40023 1.554075,1.40023 0.18003,0 0.293436,0.57432 0.293436,1.48606 0,1.42039 0.0263,1.47777 0.595312,1.29818 0.327422,-0.10333 0.922735,-0.2498 1.322917,-0.32547 0.400182,-0.0757 0.727604,-0.22988 0.727604,-0.34269 0,-0.11281 0.405223,-0.28113 0.900496,-0.37404 0.495274,-0.0929 0.967785,-0.34429 1.050029,-0.55862 0.08225,-0.21432 0.331864,-0.38967 0.554714,-0.38967 0.521695,0 0.528138,-0.68996 0.0083,-0.88943 -0.218281,-0.0838 -0.396875,-0.28462 -0.396875,-0.44635 0,-0.37845 -2.896843,-3.27072 -3.505729,-3.5002 -0.254661,-0.096 -0.463021,-0.28928 -0.463021,-0.42956 0,-0.14028 -0.236172,-0.33001 -0.524827,-0.42163 -0.85289,-0.27069 -2.659253,-2.22959 -2.826335,-3.065 -0.144701,-0.72347 -0.10123,-0.77283 0.680553,-0.77283 0.555602,0 0.890807,0.15498 1.001477,0.46302 0.180401,0.50213 1.00797,1.38906 1.296094,1.38906 0.09804,0 0.571275,0.41672 1.051628,0.92604 0.480354,0.50932 0.973969,0.92604 1.096921,0.92604 0.122951,0 0.405497,0.20836 0.627882,0.46302 0.222383,0.25467 0.725094,0.69964 1.117135,0.98884 0.392041,0.2892 0.7128,0.65604 0.7128,0.81519 0,0.15915 0.289103,0.44409 0.642454,0.6332 0.403389,0.21589 0.767278,0.76659 0.97791,1.47996 0.33541,1.13596 0.335685,1.13615 1.871089,1.31435 0.844597,0.098 1.535631,0.28561 1.535631,0.41684 0,0.13123 0.127084,0.2386 0.282413,0.2386 0.363903,0 0.04841,-1.09528 -0.423881,-1.47155 -0.467751,-0.37265 -0.742884,-1.53034 -0.526052,-2.21352 0.140893,-0.44391 0.393025,-0.54826 1.324758,-0.54826 0.632912,0 1.190855,0.12032 1.239877,0.26739 0.04902,0.14706 1.279335,0.33325 2.734027,0.41376 3.732633,0.20656 3.782608,0.22293 3.985673,1.30536 0.09533,0.50815 0.271229,0.92391 0.39089,0.92391 0.11966,0 0.255238,0.3264 0.301284,0.72534 0.05693,0.49321 0.253068,0.74574 0.612886,0.78908 0.291041,0.0351 0.380338,-0.004 0.198437,-0.0859 -0.43602,-0.19732 -0.418597,-0.58467 0.04725,-1.05052 0.431231,-0.43123 1.474108,-0.51145 1.474108,-0.11339 0,0.14552 0.119062,0.26458 0.264583,0.26458 0.348271,0 0.343792,-1.517 -0.0048,-1.6332 -0.148172,-0.0494 -0.345199,-0.72978 -0.437838,-1.51197 l -0.168434,-1.42216 2.356067,0.19539 c 1.29584,0.10747 2.415601,0.2871 2.488362,0.39918 0.07276,0.11209 0.66807,0.29248 1.322911,0.40089 0.654849,0.1084 1.250159,0.28706 1.322919,0.39701 0.161762,0.24446 5.488851,0.7342 5.812222,0.53435 0.12718,-0.0786 0.315539,-0.47876 0.41856,-0.88924 0.103018,-0.41047 0.339839,-0.80485 0.526259,-0.87639 0.186431,-0.0715 0.410451,-0.41491 0.497821,-0.76305 0.189109,-0.75345 1.244309,-1.86524 1.99706,-2.10415 0.86742,-0.27531 0.623429,-0.64325 -0.65296,-0.98463 -0.654841,-0.17515 -1.190631,-0.40425 -1.190631,-0.50911 0,-0.10487 -0.654841,-0.27249 -1.4552,-0.37249 -0.80038,-0.1 -1.455219,-0.28716 -1.455219,-0.41591 0,-0.12876 -0.178591,-0.2341 -0.39688,-0.2341 -0.218281,0 -0.39687,-0.13395 -0.39687,-0.29766 0,-0.18637 0.282879,-0.24108 0.75665,-0.14632 0.416158,0.0832 1.368658,0.23251 2.11667,0.33174 0.748,0.0992 1.360008,0.26925 1.360008,0.37784 0,0.10858 0.374132,0.27225 0.8314,0.3637 0.457272,0.0914 0.989262,0.37423 1.182212,0.62839 0.333758,0.43964 0.351218,0.4396 0.35923,-9.3e-4 0.006,-0.31526 0.219509,-0.46302 0.669869,-0.46302 0.3638,0 0.661461,0.10011 0.661461,0.22248 0,0.12236 0.684609,0.37483 1.521349,0.56103 0.83675,0.1862 1.606111,0.47304 1.7097,0.63741 0.11583,0.1838 1.33826,0.33403 3.17494,0.39018 1.642901,0.0502 3.06171,0.21285 3.15356,0.36146 0.0919,0.14874 1.258211,0.28197 2.595042,0.29643 1.866259,0.0202 2.484829,-0.0634 2.673318,-0.36146 0.166722,-0.26361 0.246531,-0.28186 0.24929,-0.057 0.0021,0.1819 0.18264,0.33073 0.400921,0.33073 0.4802,0 0.528248,0.43815 0.0661,0.60319 -0.181901,0.065 -0.2325,0.22272 -0.112451,0.35057 0.122309,0.13024 0.324408,0.0428 0.45964,-0.19883 0.132749,-0.23721 0.56911,-0.51355 0.9697,-0.61409 0.400579,-0.10054 0.81471,-0.32218 0.920279,-0.49255 0.26593,-0.42914 7.03312,-0.43221 7.298129,-0.003 0.10414,0.16855 0.63556,0.39016 1.18093,0.49247 0.54537,0.10231 0.99158,0.27795 0.99158,0.3903 0,0.11236 0.23813,0.26655 0.52917,0.34266 0.70297,0.18383 0.68029,-0.34383 -0.0484,-1.12598 l -0.57756,-0.61994 2.093521,0.18971 c 1.15143,0.10434 2.15904,0.29573 2.23913,0.42532 0.20259,0.3278 2.22292,0.62153 2.9756,0.43262 0.48215,-0.12101 0.69852,-0.45513 0.96299,-1.48703 0.18761,-0.73201 0.43592,-1.33093 0.5518,-1.33093 0.11587,0 0.28886,-0.41672 0.38441,-0.92605 0.0955,-0.50932 0.26488,-0.92604 0.3763,-0.92604 0.11142,0 0.35515,-0.59531 0.54163,-1.32291 0.21588,-0.84241 0.48194,-1.32292 0.73248,-1.32292 0.30577,0 0.35187,0.19163 0.20689,0.8599 -0.1026,0.47294 -0.28185,0.921 -0.39832,0.9957 -0.11647,0.0747 -0.35376,0.69977 -0.52733,1.38906 -0.17357,0.68929 -0.41511,1.25326 -0.53676,1.25326 -0.12165,0 -0.29936,0.41672 -0.39491,0.92604 -0.0956,0.50932 -0.27008,0.92604 -0.38784,0.92604 -0.11777,0 -0.29279,0.35818 -0.38894,0.79595 -0.0962,0.43777 -0.40326,0.91821 -0.68248,1.06764 -0.27921,0.14943 -0.50766,0.44355 -0.50766,0.65359 0,0.31499 0.55766,0.37129 3.18326,0.32142 2.0396,-0.0388 3.25159,0.0416 3.37344,0.2237 0.1046,0.15629 0.75572,0.43965 1.44696,0.62969 0.69121,0.19004 1.25676,0.43621 1.25676,0.54705 0,0.11083 0.29765,0.27622 0.66146,0.36753 0.3638,0.0913 0.66145,0.34234 0.66145,0.55785 0,0.2155 0.11188,0.39183 0.24862,0.39183 0.13673,0 0.28557,0.44648 0.33072,0.99219 l 0.0821,0.99218 1.98438,-0.006 c 1.0914,-0.003 3.175,-0.0629 4.63021,-0.13229 l 2.64583,-0.12614 0.0821,0.99219 c 0.0452,0.5457 0.19399,0.99219 0.33073,0.99219 0.13673,0 0.24861,0.69161 0.24861,1.53693 0,1.88977 0.39811,2.5412 1.39944,2.28988 0.39447,-0.099 0.71722,-0.27671 0.71722,-0.39489 0,-0.11818 0.35818,-0.29355 0.79596,-0.3897 0.43777,-0.0962 0.91821,-0.40327 1.06764,-0.68248 0.14943,-0.27921 0.42788,-0.50766 0.61877,-0.50766 0.1909,0 0.62164,-0.23813 0.95722,-0.52917 0.33557,-0.29104 0.77052,-0.52916 0.96652,-0.52916 0.19602,0 0.35639,-0.11907 0.35639,-0.26459 0,-0.14552 0.3572,-0.26458 0.79375,-0.26458 0.91923,0 0.87164,-0.23653 0.79871,3.96875 -0.029,1.67349 -0.16109,3.0824 -0.29345,3.1309 -0.13237,0.0485 -0.24263,0.64382 -0.24503,1.32292 -0.004,1.11349 -0.12085,1.3472 -1.19064,2.38033 -0.65244,0.63009 -1.18625,1.37423 -1.18625,1.65365 0,0.27942 -0.11906,0.50803 -0.26459,0.50803 -0.14552,0 -0.26458,0.19478 -0.26458,0.43284 0,0.35939 0.19775,0.40574 1.16531,0.27312 1.47873,-0.20269 1.83343,0.17647 1.7027,1.82011 -0.0908,1.1414 -0.0601,1.2088 0.50202,1.10135 0.46982,-0.0898 0.59785,0.006 0.59467,0.44417 -0.006,0.84687 -0.29798,1.12631 -1.38501,1.3262 -1.01973,0.18751 -1.35972,0.82778 -0.59531,1.12111 0.21828,0.0838 0.39687,0.42448 0.39687,0.75714 0,0.33267 -0.17859,0.67338 -0.39687,0.75714 -0.21828,0.0838 -0.39688,0.26896 -0.39688,0.41155 0,0.4197 -1.14093,1.5203 -1.78594,1.72279 -0.32742,0.10279 -0.59531,0.2887 -0.59531,0.41313 0,0.12443 -0.39828,0.35768 -0.88508,0.51833 -0.48679,0.16066 -1.04269,0.58661 -1.23533,0.94656 -0.19264,0.35996 -0.4492,0.65446 -0.57013,0.65446 -0.39834,0 -0.22919,0.78443 0.27867,1.29229 0.27419,0.2742 0.92904,0.64062 1.4552,0.81427 0.52617,0.17365 0.95667,0.4161 0.95667,0.53877 0,0.12267 0.35719,0.3015 0.79375,0.39738 0.43656,0.0959 0.79375,0.29013 0.79375,0.43166 0,0.14153 0.35719,0.38184 0.79375,0.53403 0.63442,0.22116 0.79375,0.42982 0.79375,1.03953 0,0.59302 -0.14724,0.79978 -0.66146,0.92884 -0.3638,0.0913 -0.66146,0.27591 -0.66146,0.41022 0,0.13431 -0.19926,0.32067 -0.4428,0.41412 -0.74822,0.28712 -1.40928,1.10539 -1.40928,1.74442 0,0.39394 -0.42726,0.9762 -1.21344,1.65365 -3.13846,2.70438 -3.41875,3.1438 -2.65072,4.15564 0.19378,0.2553 0.72579,0.59438 1.18222,0.75348 0.45642,0.15912 0.82986,0.38725 0.82986,0.50698 0,0.11972 0.35719,0.29613 0.79375,0.39201 0.43656,0.0959 0.79375,0.27448 0.79375,0.39688 0,0.12239 0.36523,0.30276 0.81163,0.4008 0.44639,0.098 0.87306,0.33835 0.94814,0.53402 0.0751,0.19567 0.47218,0.42948 0.88243,0.51959 0.51418,0.11293 0.85199,0.4262 1.08736,1.00835 0.18779,0.46449 0.41799,0.90406 0.51156,0.97682 0.33583,0.26116 0.78596,1.9506 0.78596,2.9499 v 1.01885 H 62.96181 -9.4017294 Z M 36.784954,139.97017 c 0.101666,-0.32742 0.601136,-0.96904 1.109937,-1.42583 0.508799,-0.45678 0.851467,-0.94964 0.761479,-1.09525 -0.416131,-0.67331 -4.01506,-0.44079 -4.820325,0.31144 -0.33915,0.31682 -0.02971,0.73049 0.774325,1.03515 0.268478,0.10174 0.550254,0.4225 0.626171,0.7128 0.07592,0.29031 0.302738,0.52784 0.504047,0.52784 0.201308,0 0.366016,0.11906 0.366016,0.26458 0,0.50327 0.49421,0.26232 0.67835,-0.33073 z m 60.961904,-15.45534 c 0.23213,-0.21924 -0.64836,-0.60183 -1.77828,-0.77271 -0.618458,-0.0935 -1.124476,-0.2756 -1.124476,-0.4046 0,-0.26135 -4.82051,-0.31812 -5.75469,-0.0678 -0.7111,0.19057 -0.773981,0.57767 -0.132292,0.81443 0.254661,0.094 0.522811,0.25785 0.595871,0.3642 0.398229,0.57965 7.588717,0.63796 8.193867,0.0665 z m -11.802906,0.0434 c -0.0838,-0.21828 -0.199091,-0.39687 -0.25628,-0.39687 -0.0572,0 -0.103982,0.17859 -0.103982,0.39687 0,0.21828 0.115322,0.39688 0.256281,0.39688 0.140949,0 0.18774,-0.1786 0.103981,-0.39688 z m -42.230577,-1.38336 c -0.887709,-0.0929 -0.992187,-0.18244 -0.992187,-0.85071 0,-0.82656 0.473974,-1.06327 2.141659,-1.06961 0.953394,-0.004 2.356257,0.88533 2.356257,1.49309 0,0.29505 -1.306441,0.65588 -2.083593,0.57549 -0.236472,-0.0245 -0.876433,-0.0912 -1.422136,-0.14826 z m 13.429475,-3.77298 c -0.09269,-0.14998 0.01349,-0.19434 0.24897,-0.10399 0.45837,0.1759 0.542232,0.36554 0.16165,0.36554 -0.13693,0 -0.321709,-0.1177 -0.41062,-0.26155 z"
       style="stroke-width:0.26458332" />
  </g>
</svg>
