<?xml version="1.0" encoding="UTF-8" standalone="no"?>
<svg
   xmlns:dc="http://purl.org/dc/elements/1.1/"
   xmlns:cc="http://creativecommons.org/ns#"
   xmlns:rdf="http://www.w3.org/1999/02/22-rdf-syntax-ns#"
   xmlns:svg="http://www.w3.org/2000/svg"
   xmlns="http://www.w3.org/2000/svg"
   id="svg4624"
   version="1.1"
   viewBox="0 0 89.836159 89.836159"
   height="89.836159mm"
   width="89.836159mm">
  <defs
     id="defs4618" />
  <metadata
     id="metadata4621">
    <rdf:RDF>
      <cc:Work
         rdf:about="">
        <dc:format>image/svg+xml</dc:format>
        <dc:type
           rdf:resource="http://purl.org/dc/dcmitype/StillImage" />
        <dc:title></dc:title>
      </cc:Work>
    </rdf:RDF>
  </metadata>
  <g
     transform="translate(-60.915254,-103.91525)"
     id="layer1">
    <g
       id="g4603"
       transform="translate(19.74925,15.119039)">
      <circle
         style="fill:#c8beb7;fill-opacity:1;stroke:none;stroke-width:0.26458332"
         id="path4597"
         cx="86.084084"
         cy="133.71429"
         r="44.918079" />
      <g
         id="g4595"
         transform="matrix(0.3138144,0,0,0.3138144,51.923145,96.73463)">
        <circle
           id="path10"
           cx="108.85715"
           cy="77.414688"
           r="43.236576"
           style="stroke-width:0.26458332" />
        <path
           style="fill:#000000;fill-opacity:1;stroke:none;stroke-width:0.24480422"
           d="m 46.388452,201.31423 c -3.630072,-0.27366 -5.584536,-1.31715 -6.47529,-3.45714 -0.437801,-1.0518 -0.473718,-2.46416 -0.473718,-18.62781 0,-18.60736 0.04649,-19.4643 1.353227,-24.94662 3.741113,-15.69547 15.500352,-24.6535 33.896218,-25.82171 l 3.437755,-0.2183 3.64158,1.52799 c 11.520667,4.83401 21.629746,6.82092 31.006556,6.09421 6.91021,-0.53553 10.81084,-1.5616 19.21908,-5.05559 l 6.17099,-2.56432 3.42302,0.217 c 20.31018,1.28754 33.05503,12.34393 35.90407,31.14746 0.38986,2.57303 0.76607,15.53468 0.78144,26.92261 0.0143,10.61089 -0.04,10.97253 -1.90114,12.66649 -1.37126,1.24807 -3.22971,1.84417 -6.61011,2.12016 -3.00254,0.24515 -120.119083,0.24094 -123.373678,-0.004 z"
           id="path4532" />
      </g>
    </g>
  </g>
</svg>
